<svg width="200" height="200" viewBox="0 0 200 200" fill="none" xmlns="http://www.w3.org/2000/svg">
<g clip-path="url(#clip0_3490_5793)">
<path d="M99.9998 117.356L109.19 96.6898L129.855 87.5L109.19 78.3102L99.9998 57.6444L90.81 78.3102L70.1442 87.5L90.81 96.6898L99.9998 117.356ZM32.8527 147.756C29.5848 147.756 26.7646 146.57 24.3921 144.197C22.0196 141.825 20.8334 139.005 20.8334 135.737V43.1094C20.8334 39.8415 22.0196 37.0213 24.3921 34.649C26.7646 32.2765 29.5848 31.0902 32.8527 31.0902H167.147C170.415 31.0902 173.235 32.2765 175.608 34.649C177.98 37.0213 179.166 39.8415 179.166 43.1094V135.737C179.166 139.005 177.98 141.825 175.608 144.197C173.235 146.57 170.415 147.756 167.147 147.756H32.8527ZM32.8527 138.301H167.147C167.788 138.301 168.376 138.034 168.91 137.5C169.444 136.966 169.711 136.378 169.711 135.737V43.1094C169.711 42.4683 169.444 41.8806 168.91 41.3465C168.376 40.8122 167.788 40.545 167.147 40.545H32.8527C32.2116 40.545 31.6239 40.8122 31.0896 41.3465C30.5554 41.8806 30.2884 42.4683 30.2884 43.1094V135.737C30.2884 136.378 30.5554 136.966 31.0896 137.5C31.6239 138.034 32.2116 138.301 32.8527 138.301ZM16.2661 168.589C14.9239 168.589 13.8004 168.133 12.8957 167.221C11.9909 166.309 11.5386 165.177 11.5386 163.824C11.5386 162.471 11.9909 161.351 12.8957 160.464C13.8004 159.578 14.9239 159.134 16.2661 159.134H183.734C185.076 159.134 186.199 159.59 187.104 160.502C188.009 161.414 188.461 162.547 188.461 163.9C188.461 165.253 188.009 166.372 187.104 167.259C186.199 168.146 185.076 168.589 183.734 168.589H16.2661Z" fill="#3233C1"/>
</g>
<defs>
<clipPath id="clip0_3490_5793">
<rect width="200" height="200" fill="white"/>
</clipPath>
</defs>
</svg>
