<svg width="200" height="200" viewBox="0 0 200 200" fill="none" xmlns="http://www.w3.org/2000/svg">
<g clip-path="url(#clip0_3490_5797)">
<path d="M163.842 46.5166L158.116 33.7776L145.377 27.9871L158.116 22.1967L163.842 9.52258L169.632 22.1967L182.371 27.9871L169.632 33.7776L163.842 46.5166ZM183.594 52.2421L180.763 45.8727L174.394 42.9774L180.763 40.0822L183.594 33.7776L186.554 40.0822L192.859 42.9774L186.554 45.8727L183.594 52.2421Z" fill="#3233C1"/>
<path d="M45.8335 172.917V37.5002H110.721L114.519 55.0965H162.5V125.529H115.337L111.558 108.061H55.2885V172.917H45.8335ZM123.477 116.074H153.045V64.5513H106.378L102.58 46.9552H55.2885V98.6059H119.679L123.477 116.074Z" fill="#3233C1"/>
</g>
<defs>
<clipPath id="clip0_3490_5797">
<rect width="200" height="200" fill="white"/>
</clipPath>
</defs>
</svg>
