<svg width="200" height="200" viewBox="0 0 200 200" fill="none" xmlns="http://www.w3.org/2000/svg">
<g clip-path="url(#clip0_3490_5788)">
<path d="M44.0066 155.993C36.8272 148.867 31.1702 140.523 27.0356 130.961C22.9009 121.4 20.8335 111.079 20.8335 100C20.8335 88.9744 22.9009 78.6807 27.0356 69.1187C31.1702 59.5568 36.8272 51.1861 44.0066 44.0067L50.8012 50.8012C44.4658 57.0833 39.4631 64.4285 35.7933 72.8367C32.1234 81.2447 30.2885 90.2992 30.2885 100C30.2885 109.701 32.102 118.734 35.7291 127.099C39.3563 135.465 44.3804 142.831 50.8012 149.199L44.0066 155.993ZM67.5483 132.452C63.4244 128.381 60.1632 123.566 57.7647 118.005C55.3661 112.444 54.1668 106.442 54.1668 100C54.1668 93.5578 55.3661 87.5696 57.7647 82.0354C60.1632 76.5012 63.4244 71.6722 67.5483 67.5483L74.3429 74.3429C71.063 77.5694 68.4562 81.3729 66.5225 85.7533C64.5887 90.1336 63.6218 94.8825 63.6218 100C63.6218 105.117 64.5673 109.832 66.4583 114.142C68.3494 118.453 70.9776 122.292 74.3429 125.657L67.5483 132.452ZM100 112.5C96.5919 112.5 93.6566 111.268 91.1941 108.806C88.7315 106.343 87.5002 103.408 87.5002 100C87.5002 96.5919 88.7315 93.6567 91.1941 91.1942C93.6566 88.7315 96.5919 87.5002 100 87.5002C103.408 87.5002 106.343 88.7315 108.806 91.1942C111.268 93.6567 112.5 96.5919 112.5 100C112.5 103.408 111.268 106.343 108.806 108.806C106.343 111.268 103.408 112.5 100 112.5ZM132.452 132.452L125.657 125.657C128.937 122.431 131.544 118.627 133.477 114.247C135.411 109.866 136.378 105.117 136.378 100C136.378 94.8825 135.433 90.1683 133.542 85.8575C131.651 81.5465 129.022 77.7083 125.657 74.3429L132.452 67.5483C136.576 71.6722 139.837 76.5012 142.235 82.0354C144.634 87.5696 145.833 93.5578 145.833 100C145.833 106.357 144.634 112.302 142.235 117.836C139.837 123.371 136.576 128.242 132.452 132.452ZM155.993 155.993L149.199 149.199C155.534 142.917 160.537 135.572 164.207 127.163C167.876 118.755 169.711 109.701 169.711 100C169.711 90.2992 167.898 81.2794 164.271 72.9408C160.644 64.6021 155.62 57.2222 149.199 50.8012L155.993 44.0067C163.173 51.2715 168.83 59.6849 172.964 69.2469C177.099 78.8088 179.166 89.0599 179.166 100C179.166 110.94 177.099 121.191 172.964 130.753C168.83 140.315 163.173 148.728 155.993 155.993Z" fill="#3233C1"/>
</g>
<defs>
<clipPath id="clip0_3490_5788">
<rect width="200" height="200" fill="white"/>
</clipPath>
</defs>
</svg>
