<svg width="200" height="200" viewBox="0 0 200 200" fill="none" xmlns="http://www.w3.org/2000/svg">
<g clip-path="url(#clip0_3490_5782)">
<path d="M172.917 91.314V160.897C172.917 164.177 171.733 167 169.367 169.367C167 171.733 164.177 172.916 160.897 172.916H38.8945C35.6146 172.916 32.7914 171.733 30.4249 169.367C28.0585 167 26.8753 164.177 26.8753 160.897V91.1538C23.0398 88.0875 20.4703 84.2574 19.167 79.6636C17.8635 75.0695 17.9489 70.4221 19.4232 65.7213L27.981 38.3175C29.0921 34.6743 30.9564 31.8912 33.5739 29.9681C36.1914 28.0451 39.279 27.0836 42.8368 27.0836H156.202C159.931 27.0836 163.173 28.0531 165.929 29.9921C168.686 31.9313 170.593 34.6529 171.651 38.1571L180.577 65.7213C182.051 70.4221 182.102 75.0962 180.729 79.7436C179.356 84.3911 176.752 88.2479 172.917 91.314ZM118.59 86.9392C123.366 86.9392 127.196 85.5129 130.08 82.6604C132.965 79.8078 134.156 76.5866 133.654 72.9969L128.125 36.5383H104.728V72.0352C104.728 76.0204 106.055 79.5006 108.71 82.4761C111.365 85.4515 114.658 86.9392 118.59 86.9392ZM80.0322 86.9392C84.3485 86.9392 87.9676 85.4862 90.8897 82.5802C93.8116 79.6743 95.2726 76.1593 95.2726 72.0352V36.5383H71.7949L66.2659 73.3175C65.8173 76.5011 66.9232 79.5673 69.5834 82.5161C72.2437 85.4648 75.7266 86.9392 80.0322 86.9392ZM42.356 86.9392C46.0098 86.9392 49.1723 85.6865 51.8432 83.1813C54.5142 80.6758 56.0847 77.5962 56.5547 73.9423L62.0516 36.5383H41.058C40.1498 36.5383 39.4153 36.7387 38.8543 37.1394C38.2933 37.5401 37.9059 38.1411 37.6922 38.9425L28.7501 67.9167C27.2543 72.5428 27.8499 76.8697 30.537 80.8975C33.2239 84.9253 37.1636 86.9392 42.356 86.9392ZM157.436 86.9392C162.254 86.9392 166.135 85.0134 169.079 81.1619C172.022 77.3104 172.719 72.8953 171.17 67.9167L162.148 38.7821C161.934 37.9808 161.547 37.4065 160.986 37.0592C160.425 36.712 159.69 36.5383 158.782 36.5383H137.869L143.365 73.9423C143.889 77.5962 145.473 80.6758 148.117 83.1813C150.761 85.6865 153.868 86.9392 157.436 86.9392ZM38.8945 163.462H160.897C161.592 163.462 162.193 163.221 162.701 162.74C163.208 162.26 163.462 161.645 163.462 160.897V95.7852C163.12 96.0309 162.348 96.1938 161.146 96.274C159.944 96.3541 158.707 96.3942 157.436 96.3942C153.91 96.3942 150.625 95.6383 147.58 94.1265C144.535 92.6147 141.565 90.2509 138.67 87.0352C136.501 89.8663 133.777 92.1339 130.497 93.8379C127.217 95.5421 123.376 96.3942 118.974 96.3942C115.128 96.3942 111.739 95.7238 108.806 94.3829C105.874 93.0421 102.938 90.9027 100 87.9646C97.5962 90.7317 94.7437 92.8283 91.4424 94.2546C88.1412 95.681 84.6636 96.3942 81.0097 96.3942C77.0247 96.3942 73.3655 95.6704 70.0322 94.2227C66.6989 92.7751 63.8516 90.3792 61.4905 87.0352C57.6764 90.5395 54.1587 92.9754 50.9376 94.3429C47.7164 95.7104 44.8558 96.3942 42.356 96.3942C41.17 96.3942 40.0321 96.3541 38.9424 96.274C37.8527 96.1938 36.9819 96.0309 36.3301 95.7852V160.897C36.3301 161.645 36.5839 162.26 37.0914 162.74C37.599 163.221 38.2 163.462 38.8945 163.462Z" fill="#3233C1"/>
</g>
<defs>
<clipPath id="clip0_3490_5782">
<rect width="200" height="200" fill="white"/>
</clipPath>
</defs>
</svg>
