<svg width="200" height="200" viewBox="0 0 200 200" fill="none" xmlns="http://www.w3.org/2000/svg">
<g clip-path="url(#clip0_3489_5779)">
<path d="M71.3941 153.045H167.147C167.788 153.045 168.376 152.778 168.91 152.244C169.444 151.709 169.711 151.122 169.711 150.48V124.102H71.3941V153.045ZM30.2885 75.8975H61.9391V46.9552H32.8529C32.2118 46.9552 31.6241 47.2223 31.0897 47.7564C30.5556 48.2907 30.2885 48.8784 30.2885 49.5196V75.8975ZM30.2885 114.856H61.9391V85.3525H30.2885V114.856ZM32.8529 153.045H61.9391V124.102H30.2885V150.48C30.2885 151.122 30.5556 151.709 31.0897 152.244C31.6241 152.778 32.2118 153.045 32.8529 153.045ZM71.3941 114.856H169.711V85.3525H71.3941V114.856ZM71.3941 75.8975H169.711V49.5196C169.711 48.8784 169.444 48.2907 168.91 47.7564C168.376 47.2223 167.788 46.9552 167.147 46.9552H71.3941V75.8975ZM32.8529 162.5C29.585 162.5 26.7647 161.314 24.3922 158.941C22.0197 156.569 20.8335 153.748 20.8335 150.48V49.5196C20.8335 46.2516 22.0197 43.4314 24.3922 41.0589C26.7647 38.6864 29.585 37.5002 32.8529 37.5002H167.147C170.415 37.5002 173.235 38.6864 175.608 41.0589C177.98 43.4314 179.166 46.2516 179.166 49.5196V150.48C179.166 153.748 177.98 156.569 175.608 158.941C173.235 161.314 170.415 162.5 167.147 162.5H32.8529Z" fill="#3233C1"/>
</g>
<defs>
<clipPath id="clip0_3489_5779">
<rect width="200" height="200" fill="white"/>
</clipPath>
</defs>
</svg>
