<svg width="288" height="288" viewBox="0 0 288 288" fill="none" xmlns="http://www.w3.org/2000/svg">
<path d="M92.3999 170.4L133.2 192V148.8L92.3999 128.4V170.4Z" fill="#9D9D9D"/>
<path d="M144 91.2L103.2 112.8L144 133.2L184.8 112.8L144 91.2Z" fill="#9D9D9D"/>
<path d="M144 12L36 60V132C36 198 81.6 260.4 144 276C206.4 260.4 252 198 252 132V60L144 12ZM216 172.8C216 177.6 213.6 182.4 208.8 184.8L152.4 213.6C147.6 216 141.6 216 136.8 213.6L80.4 184.8C75.6 182.4 73.2 177.6 73.2 172.8V115.2C73.2 110.4 75.6 105.6 80.4 103.2L136.8 74.4C141.6 72 147.6 72 152.4 74.4L208.8 103.2C213.6 105.6 216 110.4 216 115.2V172.8Z" fill="#9D9D9D"/>
<path d="M154.8 192L195.6 170.4V128.4L154.8 148.8V192Z" fill="#9D9D9D"/>
</svg>
