<svg width="200" height="200" viewBox="0 0 200 200" fill="none" xmlns="http://www.w3.org/2000/svg">
<g clip-path="url(#clip0_3449_5582)">
<g clip-path="url(#clip1_3449_5582)">
<path d="M65.1232 139.124C66.893 139.124 68.3939 138.506 69.6262 137.27C70.8584 136.034 71.4745 134.531 71.4745 132.761C71.4745 130.992 70.8565 129.491 69.6205 128.259C68.3846 127.026 66.8817 126.41 65.112 126.41C63.3423 126.41 61.8413 127.028 60.6091 128.264C59.377 129.5 58.7609 131.003 58.7609 132.773C58.7609 134.542 59.3789 136.043 60.6147 137.275C61.8507 138.508 63.3535 139.124 65.1232 139.124ZM65.1232 106.357C66.893 106.357 68.3939 105.739 69.6262 104.503C70.8584 103.267 71.4745 101.764 71.4745 99.9944C71.4745 98.2246 70.8565 96.7237 69.6205 95.4915C68.3846 94.2594 66.8817 93.6433 65.112 93.6433C63.3423 93.6433 61.8413 94.2612 60.6091 95.4971C59.377 96.733 58.7609 98.2359 58.7609 100.006C58.7609 101.775 59.3789 103.276 60.6147 104.509C61.8507 105.741 63.3535 106.357 65.1232 106.357ZM65.1232 73.5898C66.893 73.5898 68.3939 72.9718 69.6262 71.7358C70.8584 70.4999 71.4745 68.997 71.4745 67.2273C71.4745 65.4576 70.8565 63.9567 69.6205 62.7246C68.3846 61.4924 66.8817 60.8762 65.112 60.8762C63.3423 60.8762 61.8413 61.4942 60.6091 62.73C59.377 63.966 58.7609 65.4688 58.7609 67.2385C58.7609 69.0083 59.3789 70.5092 60.6147 71.7415C61.8507 72.9737 63.3535 73.5898 65.1232 73.5898ZM91.6776 138.002H139.508V127.532H91.6776V138.002ZM91.6776 105.235H139.508V94.7652H91.6776V105.235ZM91.6776 72.4679H139.508V61.9981H91.6776V72.4679ZM42.2012 170.833C38.6195 170.833 35.5517 169.556 32.9978 167.002C30.4439 164.448 29.167 161.381 29.167 157.799V42.201C29.167 38.6194 30.4439 35.5516 32.9978 32.9977C35.5517 30.4438 38.6195 29.1669 42.2012 29.1669H157.799C161.381 29.1669 164.449 30.4438 167.002 32.9977C169.556 35.5516 170.833 38.6194 170.833 42.201V157.799C170.833 161.381 169.556 164.448 167.002 167.002C164.449 169.556 161.381 170.833 157.799 170.833H42.2012ZM42.2012 160.363H157.799C158.44 160.363 159.028 160.096 159.562 159.562C160.096 159.028 160.363 158.44 160.363 157.799V42.201C160.363 41.5599 160.096 40.9723 159.562 40.4381C159.028 39.9038 158.44 39.6367 157.799 39.6367H42.2012C41.56 39.6367 40.9724 39.9038 40.4382 40.4381C39.9039 40.9723 39.6368 41.5599 39.6368 42.201V157.799C39.6368 158.44 39.9039 159.028 40.4382 159.562C40.9724 160.096 41.56 160.363 42.2012 160.363Z" fill="#3233C1"/>
</g>
</g>
<defs>
<clipPath id="clip0_3449_5582">
<rect width="200" height="200" fill="white"/>
</clipPath>
<clipPath id="clip1_3449_5582">
<rect width="200" height="200" fill="white"/>
</clipPath>
</defs>
</svg>
