<svg width="200" height="200" viewBox="0 0 200 200" fill="none" xmlns="http://www.w3.org/2000/svg">
<g clip-path="url(#clip0_2894_4357)">
<rect width="200" height="200" fill="none"/>
<path d="M150.625 105.21V94.79H179.79V105.21H150.625ZM160.415 162.29L137.085 144.79L143.335 136.46L166.875 153.96L160.415 162.29ZM143.335 63.125L137.085 54.79L160.21 37.29L166.46 45.625L143.335 63.125ZM44.79 153.96V121.46H33.125C29.6516 121.46 26.63 120.175 24.06 117.605C21.4933 115.035 20.21 112.013 20.21 108.54V91.46C20.21 87.9867 21.4933 84.965 24.06 82.395C26.63 79.825 29.6516 78.54 33.125 78.54H67.5L104.79 56.25V143.75L67.5 121.46H55.21V153.96H44.79ZM116.25 126.04V73.96C119.583 77.0134 122.257 80.7634 124.27 85.21C126.283 89.6534 127.29 94.5834 127.29 100C127.29 105.417 126.283 110.347 124.27 114.79C122.257 119.237 119.583 122.987 116.25 126.04ZM33.125 88.96C32.5683 88.96 32.0133 89.2367 31.46 89.79C30.9033 90.3467 30.625 90.9034 30.625 91.46V108.54C30.625 109.097 30.9033 109.653 31.46 110.21C32.0133 110.763 32.5683 111.04 33.125 111.04H70.21L94.375 125.21V74.79L70.21 88.96H33.125Z" fill="#3233C1"/>
</g>
<defs>
<clipPath id="clip0_2894_4357">
<rect width="200" height="200" fill="white"/>
</clipPath>
</defs>
</svg>
