<svg width="200" height="200" viewBox="0 0 200 200" fill="none" xmlns="http://www.w3.org/2000/svg">
<g clip-path="url(#clip0_3026_9178)">
<path d="M57.9167 170.833C54.7222 170.833 51.9444 169.653 49.5833 167.292C47.2222 164.931 46.0417 162.083 46.0417 158.75V45.4167H37.5V36.0417H73.125V30.2083H126.875V36.0417H162.5V45.4167H153.958V158.75C153.958 162.083 152.778 164.931 150.417 167.292C148.056 169.653 145.278 170.833 142.083 170.833H57.9167ZM144.583 45.4167H55.4167V158.75C55.4167 159.583 55.6597 160.243 56.1458 160.729C56.6319 161.215 57.2222 161.458 57.9167 161.458H142.083C142.639 161.458 143.194 161.181 143.75 160.625C144.306 160.069 144.583 159.444 144.583 158.75V45.4167ZM79.375 143.75H88.9583V62.9167H79.375V143.75ZM111.042 143.75H120.625V62.9167H111.042V143.75ZM55.4167 45.4167V161.458V158.75V45.4167Z" fill="#3233C1"/>
</g>
<defs>
<clipPath id="clip0_3026_9178">
<rect width="200" height="200" fill="white"/>
</clipPath>
</defs>
</svg>
