<svg width="200" height="200" viewBox="0 0 200 200" fill="none" xmlns="http://www.w3.org/2000/svg">
<g clip-path="url(#clip0_3026_9184)">
<path d="M49.5833 162.5C46.25 162.5 43.4028 161.319 41.0417 158.958C38.6806 156.597 37.5 153.75 37.5 150.417V124.583H46.875V150.417C46.875 151.111 47.1528 151.736 47.7083 152.292C48.2639 152.847 48.8889 153.125 49.5833 153.125H150.417C151.111 153.125 151.736 152.847 152.292 152.292C152.847 151.736 153.125 151.111 153.125 150.417V124.583H162.5V150.417C162.5 153.75 161.319 156.597 158.958 158.958C156.597 161.319 153.75 162.5 150.417 162.5H49.5833ZM100 131.25L65.4167 96.6667L72.2917 90L95.2083 112.917V36.0417H104.792V112.917L127.708 90L134.583 96.6667L100 131.25Z" fill="#3233C1"/>
</g>
<defs>
<clipPath id="clip0_3026_9184">
<rect width="200" height="200" fill="white"/>
</clipPath>
</defs>
</svg>
