<svg width="200" height="200" viewBox="0 0 200 200" fill="none" xmlns="http://www.w3.org/2000/svg">
<g clip-path="url(#clip0_3026_9181)">
<path d="M39.9998 161.458H48.3332L140.417 69.375L131.875 60.8333L39.9998 152.917V161.458ZM160.625 62.5L138.75 40.8333L147.5 32.0833C149.305 30.1389 151.528 29.1667 154.167 29.1667C156.805 29.1667 159.028 30.1389 160.833 32.0833L169.375 40.4167C171.18 42.2222 172.048 44.4444 171.979 47.0833C171.91 49.7222 170.972 52.0139 169.166 53.9583L160.625 62.5ZM153.958 69.1667L52.0832 170.833H30.4165V149.167L132.083 47.5L153.958 69.1667ZM136.25 65L131.875 60.8333L140.417 69.375L136.25 65Z" fill="#3233C1"/>
</g>
<defs>
<clipPath id="clip0_3026_9181">
<rect width="200" height="200" fill="white"/>
</clipPath>
</defs>
</svg>
