<svg color="#FFFFFF" width="200" height="200" viewBox="0 0 200 200" xmlns="http://www.w3.org/2000/svg">
<g clip-path="url(#clip0_2894_4393)">
<rect width="200" height="200" fill="none"/>
<path fill="#3233C1" d="M19.79 171.46V25.625H97.915V59.375H180.21V171.46H19.79ZM30.21 161.04H53.54V137.71H30.21V161.04ZM30.21 127.085H53.54V103.75H30.21V127.085ZM30.21 93.335H53.54V70H30.21V93.335ZM30.21 59.375H53.54V36.04H30.21V59.375ZM63.96 161.04H87.29V137.71H63.96V161.04ZM63.96 127.085H87.29V103.75H63.96V127.085ZM63.96 93.335H87.29V70H63.96V93.335ZM63.96 59.375H87.29V36.04H63.96V59.375ZM97.915 161.04H169.79V70H97.915V93.335H116.04V103.75H97.915V127.085H116.04V137.71H97.915V161.04ZM136.875 103.75V93.335H147.5V103.75H136.875ZM136.875 137.71V127.085H147.5V137.71H136.875Z"/>
</g>
<defs>
<clipPath id="clip0_2894_4393">
<rect  width="200" height="200"/>
</clipPath>
</defs>
</svg>
