<svg width="200" height="200" viewBox="0 0 200 200" fill="none" xmlns="http://www.w3.org/2000/svg">
<g clip-path="url(#clip0_3472_5558)">
<path d="M99.9975 139.423C101.735 139.423 103.174 138.853 104.315 137.715C105.455 136.576 106.026 135.138 106.026 133.4C106.026 131.662 105.456 130.223 104.317 129.082C103.178 127.942 101.74 127.372 100.002 127.372C98.2647 127.372 96.8256 127.941 95.6852 129.08C94.5446 130.219 93.9743 131.657 93.9743 133.395C93.9743 135.133 94.5438 136.572 95.6827 137.712C96.8216 138.853 98.2598 139.423 99.9975 139.423ZM95.075 109.68H105.545V58.3548H95.075V109.68ZM100.051 179.166C89.0904 179.166 78.8127 177.089 69.2177 172.933C59.6227 168.778 51.2386 163.115 44.0654 155.945C36.8922 148.775 31.2269 140.391 27.0695 130.793C22.9122 121.196 20.8335 110.913 20.8335 99.9446C20.8335 89.0119 22.9113 78.7357 27.0668 69.1158C31.2224 59.4961 36.8852 51.1228 44.0552 43.996C51.2252 36.8691 59.609 31.2269 69.2066 27.0696C78.8043 22.9122 89.0872 20.8335 100.055 20.8335C110.988 20.8335 121.264 22.9113 130.884 27.0669C140.504 31.2224 148.877 36.862 156.004 43.9856C163.131 51.1094 168.773 59.4864 172.93 69.1167C177.088 78.7468 179.166 89.0243 179.166 99.9492C179.166 110.91 177.089 121.187 172.933 130.782C168.778 140.377 163.138 148.753 156.014 155.909C148.891 163.065 140.514 168.73 130.883 172.905C121.253 177.079 110.976 179.166 100.051 179.166ZM100.069 168.697C119.161 168.697 135.372 162.017 148.702 148.659C162.032 135.301 168.697 119.058 168.697 99.9306C168.697 80.8387 162.04 64.6278 148.728 51.2981C135.416 37.9682 119.173 31.3033 100 31.3033C80.9187 31.3033 64.699 37.9596 51.3408 51.2721C37.9825 64.5844 31.3033 80.8271 31.3033 100C31.3033 119.081 37.9825 135.301 51.3408 148.659C64.699 162.017 80.9418 168.697 100.069 168.697Z" fill="#3233C1"/>
</g>
<defs>
<clipPath id="clip0_3472_5558">
<rect width="200" height="200" fill="white"/>
</clipPath>
</defs>
</svg>
