<svg width="200" height="200" viewBox="0 0 200 200" fill="none" xmlns="http://www.w3.org/2000/svg">
<g clip-path="url(#clip0_3472_5568)">
<path d="M166.132 170.748H42.2012C38.6195 170.748 35.5517 169.471 32.9978 166.917C30.4439 164.363 29.167 161.295 29.167 157.714V42.201C29.167 38.6194 30.4439 35.5516 32.9978 32.9977C35.5517 30.4438 38.6195 29.1669 42.2012 29.1669H166.132C169.714 29.1669 172.782 30.4438 175.336 32.9977C177.89 35.5516 179.167 38.6194 179.167 42.201V157.714C179.167 161.295 177.89 164.363 175.336 166.917C172.782 169.471 169.714 170.748 166.132 170.748ZM39.6368 68.8356H168.697V42.201C168.697 41.5599 168.43 40.9723 167.895 40.4381C167.361 39.9038 166.774 39.6367 166.132 39.6367H42.2012C41.56 39.6367 40.9724 39.9038 40.4382 40.4381C39.9039 40.9723 39.6368 41.5599 39.6368 42.201V68.8356ZM69.2845 79.3054H39.6368V157.714C39.6368 158.355 39.9039 158.942 40.4382 159.476C40.9724 160.011 41.56 160.278 42.2012 160.278H69.2845V79.3054ZM139.049 79.3054V160.278H166.132C166.774 160.278 167.361 160.011 167.895 159.476C168.43 158.942 168.697 158.355 168.697 157.714V79.3054H139.049ZM128.579 79.3054H79.7543V160.278H128.579V79.3054Z" fill="#3233C1"/>
</g>
<defs>
<clipPath id="clip0_3472_5568">
<rect width="200" height="200" fill="white"/>
</clipPath>
</defs>
</svg>
