<svg width="200" height="200" viewBox="0 0 200 200" fill="none" xmlns="http://www.w3.org/2000/svg">
<g clip-path="url(#clip0_3027_9203)">
<path d="M68.6217 146.394H131.378V136.939H68.6217V146.394ZM68.6217 111.538H131.378V102.084H68.6217V111.538ZM49.5194 179.166C46.2515 179.166 43.4312 177.98 41.0587 175.608C38.6862 173.235 37.5 170.415 37.5 167.147V32.8529C37.5 29.585 38.6862 26.7648 41.0587 24.3923C43.4312 22.0198 46.2515 20.8336 49.5194 20.8336H121.923L162.5 61.4102V167.147C162.5 170.415 161.313 173.235 158.941 175.608C156.568 177.98 153.748 179.166 150.48 179.166H49.5194ZM117.195 65.6729V30.2886H49.5194C48.8783 30.2886 48.2906 30.5556 47.7562 31.0898C47.2221 31.6241 46.955 32.2118 46.955 32.8529V167.147C46.955 167.788 47.2221 168.376 47.7562 168.91C48.2906 169.444 48.8783 169.711 49.5194 169.711H150.48C151.121 169.711 151.709 169.444 152.243 168.91C152.777 168.376 153.045 167.788 153.045 167.147V65.6729H117.195Z" fill="#CDCDD6"/>
</g>
<defs>
<clipPath id="clip0_3027_9203">
<rect width="200" height="200" fill="white"/>
</clipPath>
</defs>
</svg>
