<svg width="200" height="200" viewBox="0 0 200 200" fill="none" xmlns="http://www.w3.org/2000/svg">
<g clip-path="url(#clip0_3559_5721)">
<path d="M42.2012 170.833C38.6195 170.833 35.5517 169.556 32.9978 167.002C30.4439 164.448 29.167 161.381 29.167 157.799V42.201C29.167 38.6194 30.4439 35.5516 32.9978 32.9977C35.5517 30.4438 38.6195 29.1669 42.2012 29.1669H157.799C161.381 29.1669 164.449 30.4438 167.002 32.9977C169.556 35.5516 170.833 38.6194 170.833 42.201V157.799C170.833 161.381 169.556 164.448 167.002 167.002C164.449 169.556 161.381 170.833 157.799 170.833H42.2012ZM42.2012 160.363H157.799C158.44 160.363 159.028 160.096 159.562 159.562C160.096 159.028 160.363 158.44 160.363 157.799V42.201C160.363 41.5599 160.096 40.9723 159.562 40.4381C159.028 39.9038 158.44 39.6367 157.799 39.6367H42.2012C41.56 39.6367 40.9724 39.9038 40.4382 40.4381C39.9039 40.9723 39.6368 41.5599 39.6368 42.201V157.799C39.6368 158.44 39.9039 159.028 40.4382 159.562C40.9724 160.096 41.56 160.363 42.2012 160.363ZM55.8553 139.893H144.925L117.778 103.75L93.1945 135.299L76.2182 113.28L55.8553 139.893Z" fill="#CDCDD6"/>
</g>
<defs>
<clipPath id="clip0_3559_5721">
<rect width="200" height="200" fill="white"/>
</clipPath>
</defs>
</svg>
