<svg width="200" height="200" viewBox="0 0 200 200" fill="none" xmlns="http://www.w3.org/2000/svg">
<g clip-path="url(#clip0_3027_9194)">
<path d="M69.1667 108.125H76.0417V91.0417H86.6667C88.6112 91.0417 90.2431 90.382 91.5626 89.0625C92.882 87.7431 93.5417 86.1112 93.5417 84.1667V73.5417C93.5417 71.5973 92.882 69.9653 91.5626 68.6459C90.2431 67.3264 88.6112 66.6667 86.6667 66.6667H69.1667V108.125ZM76.0417 84.1667V73.5417H86.6667V84.1667H76.0417ZM102.5 108.125H119.583C121.528 108.125 123.16 107.465 124.479 106.146C125.799 104.826 126.458 103.194 126.458 101.25V73.5417C126.458 71.5973 125.799 69.9653 124.479 68.6459C123.16 67.3264 121.528 66.6667 119.583 66.6667H102.5V108.125ZM109.583 101.25V73.5417H119.583V101.25H109.583ZM137.083 108.125H143.958V91.0417H155.417V84.1667H143.958V73.5417H155.417V66.6667H137.083V108.125ZM57.9167 151.875C54.7223 151.875 51.9445 150.694 49.5834 148.333C47.2223 145.972 46.0417 143.194 46.0417 140V32.9167C46.0417 29.5834 47.2223 26.7362 49.5834 24.375C51.9445 22.0139 54.7223 20.8334 57.9167 20.8334H165C168.333 20.8334 171.181 22.0139 173.542 24.375C175.903 26.7362 177.083 29.5834 177.083 32.9167V140C177.083 143.194 175.903 145.972 173.542 148.333C171.181 150.694 168.333 151.875 165 151.875H57.9167ZM57.9167 142.5H165C165.695 142.5 166.32 142.222 166.875 141.667C167.431 141.111 167.708 140.556 167.708 140V32.9167C167.708 32.2223 167.431 31.5973 166.875 31.0417C166.32 30.4862 165.695 30.2084 165 30.2084H57.9167C57.3612 30.2084 56.8056 30.4862 56.2501 31.0417C55.6945 31.5973 55.4167 32.2223 55.4167 32.9167V140C55.4167 140.556 55.6945 141.111 56.2501 141.667C56.8056 142.222 57.3612 142.5 57.9167 142.5ZM35.0001 175C31.6667 175 28.8195 173.819 26.4584 171.458C24.0973 169.097 22.9167 166.25 22.9167 162.917V46.4584H32.2917V162.917C32.2917 163.611 32.5695 164.236 33.1251 164.792C33.6806 165.347 34.3056 165.625 35.0001 165.625H151.458V175H35.0001Z" fill="#CDCDD6"/>
</g>
<defs>
<clipPath id="clip0_3027_9194">
<rect width="200" height="200" fill="white"/>
</clipPath>
</defs>
</svg>
