<svg width="200" height="200" viewBox="0 0 200 200" fill="none" xmlns="http://www.w3.org/2000/svg">
<g clip-path="url(#clip0_3027_9203)">
<path d="M50.5344 179.166C46.9527 179.166 43.885 177.889 41.3311 175.336C38.7772 172.782 37.5002 169.714 37.5002 166.132V33.8677C37.5002 30.286 38.7772 27.2182 41.3311 24.6643C43.885 22.1104 46.9527 20.8335 50.5344 20.8335H120.866L162.5 62.4677V166.132C162.5 169.714 161.223 172.782 158.669 175.336C156.115 177.889 153.047 179.166 149.466 179.166H50.5344ZM115.631 67.3929V31.3033H50.5344C49.8933 31.3033 49.3057 31.5704 48.7715 32.1047C48.2372 32.6389 47.97 33.2266 47.97 33.8677V166.132C47.97 166.773 48.2372 167.361 48.7715 167.895C49.3057 168.429 49.8933 168.697 50.5344 168.697H149.466C150.107 168.697 150.694 168.429 151.229 167.895C151.763 167.361 152.03 166.773 152.03 166.132V67.3929H115.631Z" fill="#CDCDD6"/>
</g>
<defs>
<clipPath id="clip0_3027_9203">
<rect width="200" height="200" fill="white"/>
</clipPath>
</defs>
</svg>
