<svg width="200" height="200" viewBox="0 0 200 200" fill="none" xmlns="http://www.w3.org/2000/svg">
<g clip-path="url(#clip0_3559_5715)">
<path d="M68.6219 146.394H131.378V136.939H68.6219V146.394ZM68.6219 111.538H131.378V102.083H68.6219V111.538ZM49.5196 179.166C46.2517 179.166 43.4315 177.98 41.059 175.608C38.6865 173.235 37.5002 170.415 37.5002 167.147V32.8529C37.5002 29.585 38.6865 26.7647 41.059 24.3922C43.4315 22.0197 46.2517 20.8335 49.5196 20.8335H121.923L162.5 61.4102V167.147C162.5 170.415 161.314 173.235 158.941 175.608C156.569 177.98 153.748 179.166 150.48 179.166H49.5196ZM117.196 65.6729V30.2885H49.5196C48.8785 30.2885 48.2908 30.5556 47.7565 31.0897C47.2223 31.6241 46.9552 32.2118 46.9552 32.8529V167.147C46.9552 167.788 47.2223 168.376 47.7565 168.91C48.2908 169.444 48.8785 169.711 49.5196 169.711H150.48C151.122 169.711 151.709 169.444 152.244 168.91C152.778 168.376 153.045 167.788 153.045 167.147V65.6729H117.196Z" fill="#CDCDD6"/>
</g>
<defs>
<clipPath id="clip0_3559_5715">
<rect width="200" height="200" fill="white"/>
</clipPath>
</defs>
</svg>
