<svg width="200" height="200" viewBox="0 0 200 200" fill="none" xmlns="http://www.w3.org/2000/svg">
<g clip-path="url(#clip0_3449_5586)">
<g clip-path="url(#clip1_3449_5586)">
<path d="M23.9728 147.916C20.2311 147.916 17.0364 146.588 14.3886 143.932C11.7407 141.277 10.4167 138.078 10.4167 134.336C10.4167 130.559 11.7404 127.355 14.3876 124.725C17.0348 122.095 20.2231 120.78 23.9526 120.78C24.8217 120.78 25.6588 120.843 26.4636 120.97C27.2685 121.096 28.1481 121.361 29.1026 121.763L70.748 80.1175C70.3455 79.1632 70.0811 78.2836 69.9547 77.4788C69.8283 76.6739 69.7651 75.8369 69.7651 74.9677C69.7651 71.2026 71.093 68.0053 73.7488 65.3758C76.4048 62.7465 79.6037 61.4319 83.3455 61.4319C87.1229 61.4319 90.3265 62.7531 92.9565 65.3954C95.5864 68.0378 96.9013 71.2506 96.9013 75.034C96.9013 75.5028 96.6272 77.144 96.0788 79.9573L120.043 103.921C120.997 103.59 121.85 103.37 122.601 103.261C123.353 103.153 124.152 103.099 125 103.099C125.848 103.099 126.66 103.162 127.438 103.288C128.217 103.415 129.056 103.679 129.957 104.081L163.429 70.609C163.027 69.708 162.763 68.8684 162.636 68.0902C162.51 67.3122 162.447 66.4885 162.447 65.6194C162.447 61.8542 163.775 58.6569 166.431 56.0275C169.086 53.3982 172.285 52.0835 176.027 52.0835C179.805 52.0835 183.008 53.4026 185.638 56.0406C188.268 58.6788 189.583 61.8866 189.583 65.664C189.583 69.4058 188.268 72.6006 185.639 75.2483C183.01 77.8961 179.812 79.22 176.047 79.22C175.178 79.22 174.354 79.1567 173.576 79.0302C172.798 78.9038 171.959 78.6394 171.058 78.2371L137.585 111.709C137.988 112.61 138.252 113.45 138.379 114.228C138.505 115.006 138.568 115.83 138.568 116.699C138.568 120.428 137.249 123.617 134.611 126.264C131.973 128.911 128.765 130.235 124.988 130.235C121.246 130.235 118.051 128.911 115.403 126.264C112.756 123.617 111.432 120.428 111.432 116.699C111.432 115.83 111.495 114.993 111.622 114.188C111.748 113.383 112.012 112.503 112.415 111.549L88.4509 87.5852C87.4966 87.9877 86.617 88.2521 85.8122 88.3785C85.0073 88.5049 84.1695 88.5681 83.2986 88.5681C82.8303 88.5681 81.1895 88.294 78.3761 87.7456L36.7307 129.391C37.0618 130.345 37.2817 131.198 37.3905 131.95C37.4991 132.701 37.5534 133.511 37.5534 134.381C37.5534 138.11 36.2343 141.298 33.5961 143.946C30.9579 146.593 27.7502 147.916 23.9728 147.916Z" fill="#3233C1"/>
</g>
</g>
<defs>
<clipPath id="clip0_3449_5586">
<rect width="200" height="200" fill="white"/>
</clipPath>
<clipPath id="clip1_3449_5586">
<rect width="200" height="200" fill="white"/>
</clipPath>
</defs>
</svg>
