<svg width="200" height="200" viewBox="0 0 200 200" fill="none" xmlns="http://www.w3.org/2000/svg">
<g clip-path="url(#clip0_2989_12075)">
<rect width="200" height="200" fill="none"/>
<path d="M95.8333 139.583H105.208V91.6667H95.8333V139.583ZM99.9999 78.3333C101.528 78.3333 102.847 77.8125 103.958 76.7708C105.069 75.7292 105.625 74.375 105.625 72.7083C105.625 71.0417 105.104 69.6875 104.062 68.6458C103.021 67.6042 101.667 67.0833 99.9999 67.0833C98.3333 67.0833 96.9791 67.6042 95.9374 68.6458C94.8957 69.6875 94.3749 71.0417 94.3749 72.7083C94.3749 74.375 94.8957 75.7292 95.9374 76.7708C96.9791 77.8125 98.3333 78.3333 99.9999 78.3333ZM99.9999 179.167C89.0277 179.167 78.7499 177.083 69.1666 172.917C59.5833 168.75 51.2152 163.09 44.0624 155.938C36.9096 148.785 31.2499 140.417 27.0833 130.833C22.9166 121.25 20.8333 110.972 20.8333 100C20.8333 89.0278 22.9166 78.7153 27.0833 69.0625C31.2499 59.4097 36.9096 51.0417 44.0624 43.9583C51.2152 36.875 59.5833 31.25 69.1666 27.0833C78.7499 22.9167 89.0277 20.8333 99.9999 20.8333C110.972 20.8333 121.285 22.9167 130.937 27.0833C140.59 31.25 148.958 36.875 156.042 43.9583C163.125 51.0417 168.75 59.4097 172.917 69.0625C177.083 78.7153 179.167 89.0278 179.167 100C179.167 110.972 177.083 121.25 172.917 130.833C168.75 140.417 163.125 148.785 156.042 155.938C148.958 163.09 140.59 168.75 130.937 172.917C121.285 177.083 110.972 179.167 99.9999 179.167ZM100.208 169.792C119.514 169.792 135.937 162.986 149.479 149.375C163.021 135.764 169.792 119.236 169.792 99.7917C169.792 80.4861 163.021 64.0625 149.479 50.5208C135.937 36.9792 119.444 30.2083 99.9999 30.2083C80.6944 30.2083 64.236 36.9792 50.6249 50.5208C37.0138 64.0625 30.2083 80.5556 30.2083 100C30.2083 119.306 37.0138 135.764 50.6249 149.375C64.236 162.986 80.7638 169.792 100.208 169.792Z" fill="#3233C1"/>
</g>
<defs>
<clipPath id="clip0_2989_12075">
<rect width="200" height="200" fill="none"/>
</clipPath>
</defs>
</svg>
