<svg width="200" height="200" viewBox="0 0 200 200" fill="none" xmlns="http://www.w3.org/2000/svg">
<g clip-path="url(#clip0_2894_4385)">
<rect width="200" height="200" fill="none"/>
<path d="M41.25 89.375L62.29 98.335C64.93 93.195 67.7084 88.23 70.625 83.44C73.5417 78.6467 76.7367 73.9583 80.21 69.375L65.625 66.665C65.2084 66.5283 64.7917 66.5283 64.375 66.665C63.9584 66.805 63.6117 67.0133 63.335 67.29L41.25 89.375ZM70.625 104.79L96.25 130.21C103.473 127.013 110.487 123.123 117.29 118.54C124.097 113.957 130.138 109.027 135.415 103.75C145.555 93.61 153.125 83.055 158.125 72.085C163.125 61.1117 165.833 48.6117 166.25 34.585C152.223 35.1383 139.758 37.915 128.855 42.915C117.952 47.915 107.43 55.415 97.29 65.415C92.0134 70.695 87.0834 76.7717 82.5 83.645C77.9167 90.5217 73.9584 97.57 70.625 104.79ZM116.04 84.79C113.403 82.29 112.085 79.165 112.085 75.415C112.085 71.665 113.403 68.4717 116.04 65.835C118.68 63.195 121.91 61.875 125.73 61.875C129.55 61.875 132.71 63.195 135.21 65.835C137.847 68.4717 139.165 71.665 139.165 75.415C139.165 79.165 137.847 82.29 135.21 84.79C132.71 87.43 129.55 88.75 125.73 88.75C121.91 88.75 118.68 87.43 116.04 84.79ZM111.665 159.79L133.75 137.915C134.027 137.498 134.235 137.082 134.375 136.665C134.515 136.248 134.515 135.832 134.375 135.415L131.46 120.835C127.013 124.305 122.36 127.498 117.5 130.415C112.64 133.332 107.71 136.04 102.71 138.54L111.665 159.79ZM176.46 24.585C177.57 41.6683 175.313 57.3283 169.69 71.565C164.063 85.7983 155 99.0967 142.5 111.46C142.223 111.877 141.945 112.223 141.665 112.5C141.388 112.777 141.042 113.055 140.625 113.335L144.79 133.335C145.07 135.555 144.897 137.673 144.27 139.69C143.647 141.703 142.57 143.473 141.04 145L108.125 178.125L92.29 141.25L59.79 108.75L22.915 92.71L55.835 59.79C57.3617 58.2633 59.1667 57.1867 61.25 56.56C63.3334 55.9367 65.4867 55.8333 67.71 56.25L87.71 60.21C88.1267 59.93 88.4384 59.6517 88.645 59.375C88.855 59.0983 89.1684 58.82 89.585 58.54C101.945 46.04 115.243 36.9783 129.48 31.355C143.717 25.7283 159.377 23.4717 176.46 24.585V24.585ZM36.875 133.54C40.9017 129.373 45.8317 127.29 51.665 127.29C57.4984 127.29 62.4984 129.373 66.665 133.54C70.695 137.57 72.675 142.502 72.605 148.335C72.535 154.168 70.4867 159.098 66.46 163.125C63.2634 166.318 58.1934 169.027 51.25 171.25C44.3067 173.473 35.0017 175.278 23.335 176.665C24.7217 164.998 26.5267 155.693 28.75 148.75C30.9734 141.807 33.6817 136.737 36.875 133.54V133.54ZM44.165 141.04C42.4984 142.847 40.9367 145.763 39.48 149.79C38.02 153.82 36.8734 158.543 36.04 163.96C41.4567 163.127 46.18 161.98 50.21 160.52C54.2367 159.063 57.1534 157.432 58.96 155.625C61.0434 153.682 62.12 151.252 62.19 148.335C62.2567 145.418 61.2484 142.918 59.165 140.835C57.0817 138.752 54.5817 137.743 51.665 137.81C48.7484 137.88 46.2484 138.957 44.165 141.04V141.04Z" fill="#3233C1"/>
</g>
<defs>
<clipPath id="clip0_2894_4385">
<rect width="200" height="200" fill="white"/>
</clipPath>
</defs>
</svg>
