<svg width="200" height="200" viewBox="0 0 200 200" fill="none" xmlns="http://www.w3.org/2000/svg">
<g clip-path="url(#clip0_2989_12044)">
<rect width="200" height="200" fill="none"/>
<g clip-path="url(#clip1_2989_12044)">
<path d="M105.5 78H98.5L102.5 82C103.5 80.5 104 79.5 105.5 78Z" fill="#C0C0C0"/>
<path d="M155 134.5V102C155 97 153 92.5 149.5 89C146 85.5 141.5 83.5 137 83.5C132 83.5 127.5 85.5 124 89C121 92 119.5 95 119 98.5L130.5 110V101.5C130.5 99.5 131 97.5 132.5 96C134 94.5 135.5 94 137.5 94C139.5 94 141 94.5 142 96C143 97.5 144 99 144 101.5V123L155 134.5Z" fill="#C0C0C0"/>
<path d="M168 147L178.5 157.5C179 155 179.5 152 179.5 149V107.5H167.5V147H168Z" fill="#C0C0C0"/>
<path d="M166 31.5C167 31.5 167.5 31.5 168 32C168.5 32.5 168.5 33 168.5 34V68C172.5 70 176 73 179 76V34C179 30.5 177.5 27.5 175 24.5C172.5 22 169.5 20.5 165.5 20.5H40.5L51 31H166V31.5Z" fill="#C0C0C0"/>
<path d="M25.5 19L18 26.5L21.5 30C21 31 21 32.5 21 34V175.5L50.5 146H95V138.5C95 138 95 137.5 95 137V135.5H46L31 150V39.5L52 60.5V62.5H54L69.5 78H52V88.5H80.5L119 127V148.5C119 157 122 164.5 128 170.5C134 176.5 141.5 179.5 150 179.5C156.5 179.5 162 178 167 174.5L173.5 181L181 173.5L25.5 19ZM149.5 169C144 169 139.5 167 136 163C132.5 159 130.5 154.5 130.5 149V138.5L158.5 166.5C156 168.5 153 169 149.5 169Z" fill="#C0C0C0"/>
<path d="M52 114.5H95V106C95 105.5 95 105 95 104H52V114.5Z" fill="#C0C0C0"/>
<path d="M148 62.5V52H72L83 62.5H138.5H148Z" fill="#C0C0C0"/>
</g>
</g>
<defs>
<clipPath id="clip0_2989_12044">
<rect width="200" height="200" fill="white"/>
</clipPath>
<clipPath id="clip1_2989_12044">
<rect width="200" height="200" fill="white"/>
</clipPath>
</defs>
</svg>
