<svg width="200" height="200" viewBox="0 0 200 200" fill="none" xmlns="http://www.w3.org/2000/svg">
<g clip-path="url(#clip0_2989_12033)">
<rect width="200" height="200" fill="none"/>
<g clip-path="url(#clip1_2989_12033)">
<path d="M52 62.5H138.5H148V52H52V62.5Z" fill="#3233C1"/>
<path d="M52 89H98.5C100 85 102.5 81.5 105 78.5H52V89Z" fill="#3233C1"/>
<path d="M52 114.5H95V106C95 105.5 95 105 95 104H52V114.5Z" fill="#3233C1"/>
<path d="M149.5 180C141 180 133.5 177 127.5 171C121.5 165 118.5 157.5 118.5 149V102C118.5 97 120.5 92.5 124 89C127.5 85.5 132 83.5 137 83.5C142 83.5 146 85.5 149.5 89C153 92.5 155 97 155 102V149.5H143.5V101.5C143.5 99.5 143 97.5 141.5 96C140.5 94.5 139 94 137 94C135 94 133.5 94.5 132 96C131 97.5 130 99 130 101.5V149C130 154.5 132 159 135.5 163C139 167 143.5 169 149 169C154.5 169 158.5 167 162 163C165.5 159 167.5 154.5 167.5 149V107.5H180V149C180 157.5 177 165 171 170.5C165 177 158 180 149.5 180Z" fill="#3233C1"/>
<path d="M175.5 24.5C173 22 170 20.5 166 20.5H34C30.5 20.5 27.5 22 24.5 24.5C22 27.5 21 30.5 21 34V175.5L50.5 146H95V138.5C95 138 95 137.5 95 137V135.5H46L31 150V34C31 33 31 32.5 31.5 32C32 31.5 32.5 31.5 33.5 31.5H165.5C166.5 31.5 167 31.5 167.5 32C168 32.5 168 33 168 34V68C172 70 175.5 73 178.5 76V34C179 30.5 178 27.5 175.5 24.5Z" fill="#3233C1"/>
</g>
</g>
<defs>
<clipPath id="clip0_2989_12033">
<rect width="200" height="200" fill="white"/>
</clipPath>
<clipPath id="clip1_2989_12033">
<rect width="200" height="200" fill="white"/>
</clipPath>
</defs>
</svg>
