<svg width="200" height="200" viewBox="0 0 200 200" fill="none" xmlns="http://www.w3.org/2000/svg">
<g clip-path="url(#clip0_3472_5542)">
<path d="M43.0022 175C39.4206 175 36.3528 173.723 33.7991 171.169C31.2452 168.615 29.9683 165.548 29.9683 161.966V42.201C29.9683 38.6194 31.2452 35.5516 33.7991 32.9977C36.3528 30.4438 39.4206 29.1669 43.0022 29.1669H100.032V39.6367H43.0022C42.3612 39.6367 41.7736 39.9038 41.2393 40.4381C40.7051 40.9723 40.4381 41.5599 40.4381 42.201V161.966C40.4381 162.607 40.7051 163.195 41.2393 163.729C41.7736 164.263 42.3612 164.53 43.0022 164.53H100.032V175H43.0022ZM137.105 135.096L129.637 127.607L149.925 107.318H77.5108V96.8485H149.755L129.466 76.5602L136.88 69.0177L170.032 102.196L137.105 135.096Z" fill="#3233C1"/>
</g>
<defs>
<clipPath id="clip0_3472_5542">
<rect width="200" height="200" fill="white"/>
</clipPath>
</defs>
</svg>
