<svg width="200" height="200" viewBox="0 0 200 200" fill="none" xmlns="http://www.w3.org/2000/svg">
<g clip-path="url(#clip0_3026_9175)">
<path d="M95.835 182.29C83.7517 182.29 73.4033 178.09 64.79 169.69C56.18 161.287 51.875 151.043 51.875 138.96V47.71C51.875 39.2367 54.965 31.91 61.145 25.73C67.325 19.55 74.7217 16.46 83.335 16.46C91.945 16.46 99.34 19.515 105.52 25.625C111.7 31.735 114.79 39.165 114.79 47.915V118.125H106.875V47.71C106.875 41.18 104.583 35.6583 100 31.145C95.4167 26.6317 89.8617 24.375 83.335 24.375C76.805 24.375 71.2483 26.6317 66.665 31.145C62.0817 35.6583 59.79 41.18 59.79 47.71V139.165C59.79 149.028 63.3317 157.362 70.415 164.165C77.4983 170.972 85.9717 174.375 95.835 174.375C100.555 174.375 104.998 173.542 109.165 171.875C113.332 170.208 117.013 167.917 120.21 165V175C116.597 177.36 112.777 179.165 108.75 180.415C104.723 181.665 100.418 182.29 95.835 182.29ZM136.46 171.875V146.875H111.46V136.46H136.46V111.46H146.875V136.46H171.875V146.875H146.875V171.875H136.46ZM95.835 141.665V149.585C90.555 149.585 86.075 147.675 82.395 143.855C78.715 140.035 76.875 135.417 76.875 130V47.71H84.79V130.415C84.79 133.612 85.8667 136.287 88.02 138.44C90.1733 140.59 92.7783 141.665 95.835 141.665ZM131.875 92.915V47.71H139.79V92.915H131.875Z" fill="white"/>
</g>
<defs>
<clipPath id="clip0_3026_9175">
<rect width="200" height="200" fill="white"/>
</clipPath>
</defs>
</svg>
