<svg width="200" height="200" viewBox="0 0 200 200" fill="none" xmlns="http://www.w3.org/2000/svg">
<g clip-path="url(#clip0_3026_9172)">
<path d="M52.0835 114.792H113.542V105.208H52.0835V114.792ZM52.0835 88.125H147.917V78.75H52.0835V88.125ZM52.0835 61.6667H147.917V52.2917H52.0835V61.6667ZM20.8335 175.417V32.9167C20.8335 29.7222 22.0141 26.9097 24.3752 24.4792C26.7363 22.0486 29.5835 20.8333 32.9168 20.8333H167.084C170.278 20.8333 173.09 22.0486 175.521 24.4792C177.952 26.9097 179.167 29.7222 179.167 32.9167V133.75C179.167 136.944 177.952 139.757 175.521 142.188C173.09 144.618 170.278 145.833 167.084 145.833H50.4168L20.8335 175.417ZM30.2085 152.5L46.2502 136.458H167.084C167.917 136.458 168.577 136.215 169.063 135.729C169.549 135.243 169.792 134.583 169.792 133.75V32.9167C169.792 32.0833 169.549 31.4236 169.063 30.9375C168.577 30.4514 167.917 30.2083 167.084 30.2083H32.9168C32.0835 30.2083 31.4238 30.4514 30.9377 30.9375C30.4516 31.4236 30.2085 32.0833 30.2085 32.9167V152.5ZM30.2085 32.9167V30.2083V152.5V32.9167Z" fill="#3233C1"/>
</g>
<defs>
<clipPath id="clip0_3026_9172">
<rect width="200" height="200" fill="white"/>
</clipPath>
</defs>
</svg>
