<svg width="200" height="200" viewBox="0 0 200 200" fill="none" xmlns="http://www.w3.org/2000/svg">
<g clip-path="url(#clip0_2895_4434)">
<rect width="200" height="200" fill="none"/>
<path fill="#FFFFFF" d="M35.415 157.29V146.665H52.5V83.75C52.5 72.36 55.9717 62.29 62.915 53.54C69.8617 44.79 78.89 39.235 90 36.875V31.04C90 28.2633 90.9717 25.9367 92.915 24.06C94.8617 22.1867 97.2234 21.25 100 21.25C102.777 21.25 105.138 22.1867 107.085 24.06C109.028 25.9367 110 28.2633 110 31.04V36.875C121.11 39.235 130.173 44.79 137.19 53.54C144.203 62.29 147.71 72.36 147.71 83.75V146.665H164.585V157.29H35.415ZM100 181.665C95.9734 181.665 92.4667 180.207 89.48 177.29C86.4934 174.373 85 170.832 85 166.665H115C115 170.832 113.542 174.373 110.625 177.29C107.708 180.207 104.167 181.665 100 181.665ZM62.915 146.665H137.085V83.75C137.085 73.3333 133.508 64.5133 126.355 57.29C119.202 50.07 110.417 46.46 100 46.46C89.7234 46.46 80.9734 50.07 73.75 57.29C66.5267 64.5133 62.915 73.3333 62.915 83.75V146.665Z"/>
</g>
<defs>
<clipPath id="clip0_2895_4434">
<rect width="200" height="200" fill="none"/>
</clipPath>
</defs>
</svg>
