<svg width="200" height="200" viewBox="0 0 200 200" fill="none" xmlns="http://www.w3.org/2000/svg">
<g clip-path="url(#clip0_2894_4388)">
<rect width="200" height="200" fill="none"/>
<g clip-path="url(#clip1_2894_4388)">
<path d="M100.5 182.408C96.4798 182.408 92.9623 180.9 89.9473 177.885C86.9323 174.87 85.4248 171.855 85.4248 167.333H115.575C115.575 171.353 114.067 174.87 111.052 177.885C108.037 180.9 104.52 182.408 100.5 182.408Z" fill="#3233C1"/>
<path d="M152.76 114.57L151.253 103.013C148.74 102.51 146.73 101.505 144.218 100.5C142.208 99.495 140.198 97.9875 138.188 95.9775L128.138 98.9925L123.615 91.455L132.66 83.9175C132.158 81.9075 131.655 79.8975 131.655 77.385C131.655 74.8725 132.158 72.8625 132.66 71.355L124.118 63.8175L128.64 56.28L138.69 59.295C140.198 57.285 142.208 55.7775 144.218 54.7725C146.73 53.7675 148.74 52.7625 151.253 52.26L152.76 40.2H162.308L163.815 51.7575C166.328 52.26 168.338 53.265 170.85 54.27C172.86 55.275 174.87 56.7825 176.88 58.7925L186.93 55.7775L191.453 63.315L182.408 70.8525C182.91 72.8625 183.413 74.8725 183.413 76.8825C183.413 79.395 182.91 81.405 182.408 83.415L191.453 90.9525L186.93 98.49L176.88 95.475C175.373 96.9825 173.363 98.49 170.85 99.9975C168.84 101.003 166.328 102.008 163.815 102.51L162.308 114.068H152.76V114.57ZM157.283 93.465C161.805 93.465 165.825 91.9575 168.84 88.9425C171.855 85.9275 173.363 81.9075 173.363 77.385C173.363 72.8625 171.855 68.8425 168.84 65.8275C165.825 62.8125 161.805 61.305 157.283 61.305C152.76 61.305 148.74 62.8125 145.725 65.8275C142.71 68.8425 141.203 72.8625 141.203 77.385C141.203 81.9075 142.71 85.9275 145.725 88.9425C148.74 91.9575 152.76 93.465 157.283 93.465Z" fill="#3233C1"/>
<path d="M148.238 126.63C144.72 126.127 140.7 125.122 137.685 123.615V147.735H63.3152V84.42C63.3152 73.8675 66.8327 65.325 73.8677 57.7875C80.9027 50.7525 89.9477 46.7325 100.5 46.7325C104.52 46.7325 108.038 47.235 112.058 48.7425C113.063 49.245 114.57 49.7475 115.575 50.25C117.585 47.235 120.098 44.22 122.61 41.7075C122.108 41.205 121.103 40.7025 120.6 40.2C117.083 38.6925 114.068 37.6875 110.55 36.6825V31.155C110.55 28.14 109.545 26.13 107.535 24.12C105.525 22.11 103.515 21.6075 100.5 21.6075C97.4852 21.6075 94.9727 22.6125 93.4652 24.6225C91.4552 26.13 90.4502 28.6425 90.4502 31.155V37.185C79.3952 39.6975 70.3502 45.225 63.3152 54.27C56.2802 63.315 52.7627 73.365 52.7627 84.42V147.735H35.6777V158.287H165.323V147.735H148.238V126.63Z" fill="#3233C1"/>
</g>
</g>
<defs>
<clipPath id="clip0_2894_4388">
<rect width="200" height="200" fill="white"/>
</clipPath>
<clipPath id="clip1_2894_4388">
<rect width="201" height="201" fill="white"/>
</clipPath>
</defs>
</svg>
