<svg width="200" height="200" viewBox="0 0 200 200" fill="none" xmlns="http://www.w3.org/2000/svg">
<g clip-path="url(#clip0_3027_9194)">
<path d="M69.1665 108.125H76.0415V91.0417H86.6665C88.6109 91.0417 90.2429 90.382 91.5623 89.0625C92.8818 87.7431 93.5415 86.1111 93.5415 84.1667V73.5417C93.5415 71.5972 92.8818 69.9653 91.5623 68.6458C90.2429 67.3264 88.6109 66.6667 86.6665 66.6667H69.1665V108.125ZM76.0415 84.1667V73.5417H86.6665V84.1667H76.0415ZM102.5 108.125H119.583C121.528 108.125 123.16 107.465 124.479 106.146C125.798 104.826 126.458 103.194 126.458 101.25V73.5417C126.458 71.5972 125.798 69.9653 124.479 68.6458C123.16 67.3264 121.528 66.6667 119.583 66.6667H102.5V108.125ZM109.583 101.25V73.5417H119.583V101.25H109.583ZM137.083 108.125H143.958V91.0417H155.416V84.1667H143.958V73.5417H155.416V66.6667H137.083V108.125ZM57.9165 151.875C54.7221 151.875 51.9443 150.694 49.5832 148.333C47.2221 145.972 46.0415 143.194 46.0415 140V32.9167C46.0415 29.5833 47.2221 26.7361 49.5832 24.375C51.9443 22.0139 54.7221 20.8333 57.9165 20.8333H165C168.333 20.8333 171.18 22.0139 173.542 24.375C175.903 26.7361 177.083 29.5833 177.083 32.9167V140C177.083 143.194 175.903 145.972 173.542 148.333C171.18 150.694 168.333 151.875 165 151.875H57.9165ZM57.9165 142.5H165C165.694 142.5 166.319 142.222 166.875 141.667C167.43 141.111 167.708 140.556 167.708 140V32.9167C167.708 32.2222 167.43 31.5972 166.875 31.0417C166.319 30.4861 165.694 30.2083 165 30.2083H57.9165C57.3609 30.2083 56.8054 30.4861 56.2498 31.0417C55.6943 31.5972 55.4165 32.2222 55.4165 32.9167V140C55.4165 140.556 55.6943 141.111 56.2498 141.667C56.8054 142.222 57.3609 142.5 57.9165 142.5ZM34.9998 175C31.6665 175 28.8193 173.819 26.4582 171.458C24.0971 169.097 22.9165 166.25 22.9165 162.917V46.4583H32.2915V162.917C32.2915 163.611 32.5693 164.236 33.1248 164.792C33.6804 165.347 34.3054 165.625 34.9998 165.625H151.458V175H34.9998Z" fill="#CDCDD6"/>
</g>
<defs>
<clipPath id="clip0_3027_9194">
<rect width="200" height="200" fill="white"/>
</clipPath>
</defs>
</svg>
