<svg width="200" height="200" viewBox="0 0 200 200" fill="none" xmlns="http://www.w3.org/2000/svg">
<g clip-path="url(#clip0_2894_4368)">
<rect width="200" height="200" fill="none"/>
<path d="M119.79 131.25H130.21V113.54H147.915V103.125H130.21V85.415H119.79V103.125H102.085V113.54H119.79V131.25ZM33.96 162.5C30.3466 162.5 27.2566 161.215 24.69 158.645C22.12 156.075 20.835 152.985 20.835 149.375V53.75C20.835 50.2767 22.12 47.2217 24.69 44.585C27.2566 41.945 30.3466 40.625 33.96 40.625H88.75L100 52.085H166.25C169.723 52.085 172.743 53.37 175.31 55.94C177.88 58.5067 179.165 61.5967 179.165 65.21V149.375C179.165 152.985 177.88 156.075 175.31 158.645C172.743 161.215 169.723 162.5 166.25 162.5H33.96ZM31.46 53.75V149.375C31.46 150.208 31.7033 150.868 32.19 151.355C32.6733 151.842 33.2633 152.085 33.96 152.085H166.25C166.943 152.085 167.533 151.842 168.02 151.355C168.507 150.868 168.75 150.208 168.75 149.375V65.21C168.75 64.3767 168.507 63.7517 168.02 63.335C167.533 62.9183 166.943 62.71 166.25 62.71H95.835L84.375 51.25H33.96C33.2633 51.25 32.6733 51.4933 32.19 51.98C31.7033 52.4667 31.46 53.0567 31.46 53.75ZM31.46 53.75V51.25V152.085V149.375V53.75Z" fill="#3233C1"/>
</g>
<defs>
<clipPath id="clip0_2894_4368">
<rect width="200" height="200" fill="white"/>
</clipPath>
</defs>
</svg>
