<svg width="200" height="200" viewBox="0 0 200 200" fill="none" xmlns="http://www.w3.org/2000/svg">
<g clip-path="url(#clip0_3026_9167)">
<path d="M100.833 145.833C102.639 145.833 104.202 145.174 105.521 143.854C106.84 142.535 107.5 140.903 107.5 138.958C107.5 137.153 106.84 135.59 105.521 134.271C104.202 132.951 102.639 132.292 100.833 132.292C99.0279 132.292 97.4654 132.951 96.146 134.271C94.8266 135.59 94.1668 137.153 94.1668 138.958C94.1668 140.903 94.8266 142.535 96.146 143.854C97.4654 145.174 99.0279 145.833 100.833 145.833ZM95.0002 117.083H104.583C104.583 113.75 105.104 110.694 106.146 107.917C107.188 105.139 109.792 102.014 113.958 98.5417C117.986 94.9306 120.903 91.4931 122.708 88.2292C124.514 84.9653 125.417 81.3889 125.417 77.5C125.417 70.5556 123.16 64.9653 118.646 60.7292C114.132 56.4931 108.333 54.375 101.25 54.375C95.0002 54.375 89.5141 55.9722 84.7918 59.1667C80.0696 62.3611 76.5974 66.5278 74.3752 71.6667L82.9168 75C84.5835 71.25 86.8752 68.3333 89.7918 66.25C92.7085 64.1667 96.3196 63.125 100.625 63.125C105.625 63.125 109.583 64.5139 112.5 67.2917C115.417 70.0695 116.875 73.5417 116.875 77.7083C116.875 80.625 116.007 83.3681 114.271 85.9375C112.535 88.507 110.07 91.1806 106.875 93.9583C102.847 97.5694 99.8613 101.146 97.9168 104.688C95.9724 108.229 95.0002 112.361 95.0002 117.083ZM100 179.167C89.1668 179.167 78.9238 177.083 69.271 172.917C59.6182 168.75 51.2154 163.09 44.0627 155.938C36.9099 148.785 31.2502 140.382 27.0835 130.729C22.9168 121.076 20.8335 110.833 20.8335 100C20.8335 89.0278 22.9168 78.7153 27.0835 69.0625C31.2502 59.4097 36.9099 51.0417 44.0627 43.9583C51.2154 36.875 59.6182 31.25 69.271 27.0833C78.9238 22.9167 89.1668 20.8333 100 20.8333C110.972 20.8333 121.285 22.9167 130.938 27.0833C140.59 31.25 148.958 36.875 156.042 43.9583C163.125 51.0417 168.75 59.4097 172.917 69.0625C177.083 78.7153 179.167 89.0278 179.167 100C179.167 110.833 177.083 121.076 172.917 130.729C168.75 140.382 163.125 148.785 156.042 155.938C148.958 163.09 140.59 168.75 130.938 172.917C121.285 177.083 110.972 179.167 100 179.167ZM100 169.792C119.445 169.792 135.938 162.986 149.479 149.375C163.021 135.764 169.792 119.306 169.792 100C169.792 80.5556 163.021 64.0625 149.479 50.5208C135.938 36.9792 119.445 30.2083 100 30.2083C80.6946 30.2083 64.2363 36.9792 50.6252 50.5208C37.014 64.0625 30.2085 80.5556 30.2085 100C30.2085 119.306 37.014 135.764 50.6252 149.375C64.2363 162.986 80.6946 169.792 100 169.792Z" fill="#3233C1"/>
</g>
<defs>
<clipPath id="clip0_3026_9167">
<rect width="200" height="200" fill="white"/>
</clipPath>
</defs>
</svg>
