<svg width="200" height="200" viewBox="0 0 200 200" fill="none" xmlns="http://www.w3.org/2000/svg">
<g clip-path="url(#clip0_2894_4348)">
<rect width="200" height="200" fill="none"/>
<path d="M60.21 139.585H113.75V129.165H60.21V139.585ZM60.21 105.21H139.79V94.79H60.21V105.21ZM60.21 70.835H139.79V60.415H60.21V70.835ZM42.29 170.835C38.68 170.835 35.59 169.55 33.02 166.98C30.45 164.41 29.165 161.32 29.165 157.71V42.29C29.165 38.68 30.45 35.59 33.02 33.02C35.59 30.45 38.68 29.165 42.29 29.165H157.71C161.32 29.165 164.41 30.45 166.98 33.02C169.55 35.59 170.835 38.68 170.835 42.29V157.71C170.835 161.32 169.55 164.41 166.98 166.98C164.41 169.55 161.32 170.835 157.71 170.835H42.29ZM42.29 160.415H157.71C158.403 160.415 159.028 160.138 159.585 159.585C160.138 159.028 160.415 158.403 160.415 157.71V42.29C160.415 41.5967 160.138 40.9717 159.585 40.415C159.028 39.8617 158.403 39.585 157.71 39.585H42.29C41.5967 39.585 40.9717 39.8617 40.415 40.415C39.8617 40.9717 39.585 41.5967 39.585 42.29V157.71C39.585 158.403 39.8617 159.028 40.415 159.585C40.9717 160.138 41.5967 160.415 42.29 160.415ZM39.585 39.585V160.415V39.585Z" fill="#3233C1"/>
</g>
<defs>
<clipPath id="clip0_2894_4348">
<rect width="200" height="200" fill="white"/>
</clipPath>
</defs>
</svg>
