<svg width="200" height="200" viewBox="0 0 200 200" fill="none" xmlns="http://www.w3.org/2000/svg">
<g clip-path="url(#clip0_3449_5590)">
<g clip-path="url(#clip1_3449_5590)">
<path d="M94.7652 129.53H105.315V90.1546L121.747 106.586L129.038 99.2948L100.08 70.3902L71.0418 99.2948L78.3333 106.586L94.7652 90.1546V129.53ZM100.014 179.166C89.1214 179.166 78.8668 177.089 69.2502 172.933C59.6335 168.778 51.2386 163.115 44.0654 155.945C36.8922 148.775 31.2269 140.384 27.0695 130.771C22.9122 121.159 20.8335 110.906 20.8335 100.014C20.8335 89.0645 22.9113 78.7726 27.0668 69.1381C31.2224 59.5035 36.8852 51.1228 44.0552 43.996C51.2252 36.8691 59.6163 31.2269 69.2287 27.0696C78.8412 22.9122 89.0936 20.8335 99.986 20.8335C110.935 20.8335 121.227 22.9113 130.862 27.0669C140.496 31.2224 148.877 36.862 156.004 43.9856C163.131 51.1094 168.773 59.4864 172.93 69.1167C177.088 78.7468 179.166 89.0366 179.166 99.986C179.166 110.879 177.089 121.133 172.933 130.75C168.778 140.366 163.138 148.761 156.014 155.935C148.891 163.108 140.514 168.773 130.883 172.93C121.253 177.088 110.963 179.166 100.014 179.166ZM100 168.697C119.138 168.697 135.372 162.018 148.702 148.659C162.032 135.301 168.697 119.081 168.697 100C168.697 80.8618 162.032 64.6278 148.702 51.2981C135.372 37.9683 119.138 31.3033 100 31.3033C80.9187 31.3033 64.699 37.9683 51.3408 51.2981C37.9825 64.6278 31.3033 80.8618 31.3033 100C31.3033 119.081 37.9825 135.301 51.3408 148.659C64.699 162.018 80.9187 168.697 100 168.697Z" fill="#3233C1"/>
</g>
</g>
<defs>
<clipPath id="clip0_3449_5590">
<rect width="200" height="200" fill="white"/>
</clipPath>
<clipPath id="clip1_3449_5590">
<rect width="200" height="200" fill="white"/>
</clipPath>
</defs>
</svg>
