<svg width="200" height="200" viewBox="0 0 200 200" fill="none" xmlns="http://www.w3.org/2000/svg">
<g clip-path="url(#clip0_3472_5538)">
<path d="M164.092 171.389L110.598 117.895C106.446 121.487 101.626 124.269 96.1386 126.241C90.6514 128.213 84.9727 129.199 79.1026 129.199C64.9223 129.199 52.9211 124.29 43.0991 114.473C33.2768 104.657 28.3657 92.7228 28.3657 78.6723C28.3657 64.6216 33.2741 52.6835 43.0909 42.8581C52.9076 33.0326 64.8515 28.1198 78.9226 28.1198C92.9936 28.1198 104.941 33.0294 114.763 42.8487C124.586 52.668 129.498 64.6053 129.498 78.6606C129.498 84.5358 128.499 90.219 126.501 95.7104C124.503 101.202 121.688 106.111 118.056 110.438L171.634 163.793L164.092 171.389ZM79.0172 118.729C90.1847 118.729 99.645 114.842 107.398 107.07C115.151 99.2976 119.028 89.8273 119.028 78.6592C119.028 67.4911 115.151 58.0208 107.398 50.2483C99.645 42.4758 90.1847 38.5896 79.0172 38.5896C67.8022 38.5896 58.3015 42.4758 50.5151 50.2483C42.7287 58.0208 38.8355 67.4911 38.8355 78.6592C38.8355 89.8273 42.7287 99.2976 50.5151 107.07C58.3015 114.842 67.8022 118.729 79.0172 118.729Z" fill="gray"/>
</g>
<defs>
<clipPath id="clip0_3472_5538">
<rect width="200" height="200" fill="white"/>
</clipPath>
</defs>
</svg>
