<svg width="200" height="200" viewBox="0 0 200 200" fill="none" xmlns="http://www.w3.org/2000/svg">
<g clip-path="url(#clip0_2894_4402)">
<rect width="200" height="200" fill="none"/>
<path d="M152.085 114.585V88.54H126.04V78.125H152.085V52.085H162.5V78.125H188.54V88.54H162.5V114.585H152.085ZM75 97.29C66.9433 97.29 60.2417 94.6166 54.895 89.27C49.5483 83.9233 46.875 77.2216 46.875 69.165C46.875 61.1116 49.5483 54.4116 54.895 49.065C60.2417 43.715 66.9433 41.04 75 41.04C83.0567 41.04 89.7583 43.715 95.105 49.065C100.452 54.4116 103.125 61.1116 103.125 69.165C103.125 77.2216 100.452 83.9233 95.105 89.27C89.7583 94.6166 83.0567 97.29 75 97.29ZM12.5 160.835V144.165C12.5 139.998 13.6117 136.18 15.835 132.71C18.055 129.237 21.18 126.597 25.21 124.79C34.2367 120.623 42.7433 117.603 50.73 115.73C58.7167 113.853 66.8067 112.915 75 112.915C83.0567 112.915 91.0767 113.853 99.06 115.73C107.047 117.603 115.623 120.623 124.79 124.79C128.82 126.737 131.945 129.41 134.165 132.81C136.388 136.213 137.5 139.998 137.5 144.165V160.835H12.5ZM22.915 150.415H127.085V144.165C127.085 142.222 126.46 140.347 125.21 138.54C123.96 136.737 122.293 135.278 120.21 134.165C111.877 130.278 104.203 127.502 97.19 125.835C90.1733 124.168 82.7767 123.335 75 123.335C67.2233 123.335 59.7933 124.168 52.71 125.835C45.6267 127.502 37.9183 130.278 29.585 134.165C27.5017 135.278 25.87 136.737 24.69 138.54C23.5067 140.347 22.915 142.222 22.915 144.165V150.415ZM75 86.875C80 86.875 84.2017 85.1733 87.605 81.77C91.0083 78.3666 92.71 74.165 92.71 69.165C92.71 64.165 91.0083 59.965 87.605 56.565C84.2017 53.1616 80 51.46 75 51.46C70 51.46 65.7983 53.1616 62.395 56.565C58.9917 59.965 57.29 64.165 57.29 69.165C57.29 74.165 58.9917 78.3666 62.395 81.77C65.7983 85.1733 70 86.875 75 86.875Z" fill="#3233C1"/>
</g>
<defs>
<clipPath id="clip0_2894_4402">
<rect width="200" height="200" fill="white"/>
</clipPath>
</defs>
</svg>
