<svg width="200" height="200" viewBox="0 0 200 200" fill="none" xmlns="http://www.w3.org/2000/svg">
<g clip-path="url(#clip0_2894_4416)">
<rect width="200" height="200" fill="none"/>
<path d="M100 97.29C91.9433 97.29 85.2417 94.6166 79.895 89.27C74.5483 83.9233 71.875 77.2216 71.875 69.165C71.875 61.1116 74.5483 54.4116 79.895 49.065C85.2417 43.715 91.9433 41.04 100 41.04C108.057 41.04 114.758 43.715 120.105 49.065C125.452 54.4116 128.125 61.1116 128.125 69.165C128.125 77.2216 125.452 83.9233 120.105 89.27C114.758 94.6166 108.057 97.29 100 97.29ZM37.5 160.835V144.165C37.5 139.862 38.6467 136.008 40.94 132.605C43.23 129.202 46.32 126.597 50.21 124.79C58.68 120.903 67.0467 117.953 75.31 115.94C83.5767 113.923 91.8067 112.915 100 112.915C108.193 112.915 116.388 113.923 124.585 115.94C132.778 117.953 141.18 120.903 149.79 124.79C153.68 126.597 156.77 129.202 159.06 132.605C161.353 136.008 162.5 139.862 162.5 144.165V160.835H37.5ZM47.915 150.415H152.085V144.165C152.085 142.222 151.46 140.347 150.21 138.54C148.96 136.737 147.293 135.278 145.21 134.165C137.43 130.278 129.86 127.502 122.5 125.835C115.14 124.168 107.64 123.335 100 123.335C92.36 123.335 84.825 124.168 77.395 125.835C69.965 127.502 62.3617 130.278 54.585 134.165C52.6383 135.278 51.04 136.737 49.79 138.54C48.54 140.347 47.915 142.222 47.915 144.165V150.415ZM100 86.875C105 86.875 109.202 85.1733 112.605 81.77C116.008 78.3666 117.71 74.165 117.71 69.165C117.71 64.165 116.008 59.965 112.605 56.565C109.202 53.1616 105 51.46 100 51.46C95 51.46 90.7983 53.1616 87.395 56.565C83.9917 59.965 82.29 64.165 82.29 69.165C82.29 74.165 83.9917 78.3666 87.395 81.77C90.7983 85.1733 95 86.875 100 86.875Z" fill="#3233C1"/>
</g>
<defs>
<clipPath id="clip0_2894_4416">
<rect width="200" height="200" fill="none"/>
</clipPath>
</defs>
</svg>
