<svg width="200" height="200" viewBox="0 0 200 200" fill="none" xmlns="http://www.w3.org/2000/svg">
<g clip-path="url(#clip0_2894_4399)">
<rect width="200" height="200" fill="none"/>
<path d="M83.335 96.875C75.2783 96.875 68.5766 94.2017 63.23 88.855C57.8833 83.5083 55.21 76.8067 55.21 68.75C55.21 60.6933 57.8833 53.9917 63.23 48.645C68.5766 43.2983 75.2783 40.625 83.335 40.625C91.3883 40.625 98.09 43.2983 103.44 48.645C108.787 53.9917 111.46 60.6933 111.46 68.75C111.46 76.8067 108.787 83.5083 103.44 88.855C98.09 94.2017 91.3883 96.875 83.335 96.875ZM20.835 160.415V143.75C20.835 139.443 21.91 135.623 24.06 132.29C26.2133 128.957 29.3733 126.318 33.54 124.375C41.8733 120.485 49.9633 117.533 57.81 115.52C65.66 113.507 74.1683 112.5 83.335 112.5H87.71C87.0133 114.307 86.4566 116.008 86.04 117.605C85.6233 119.202 85.2766 120.972 85 122.915H83.335C74.585 122.915 66.5633 123.853 59.27 125.73C51.98 127.603 44.8616 130.277 37.915 133.75C35.555 135 33.8533 136.493 32.81 138.23C31.77 139.967 31.25 141.807 31.25 143.75V150H85.625C86.0416 151.943 86.6666 153.783 87.5 155.52C88.3333 157.257 89.2366 158.888 90.21 160.415H20.835ZM136.875 167.085L135.415 155.415C133.055 154.862 130.763 153.96 128.54 152.71C126.32 151.46 124.377 150.002 122.71 148.335L112.5 151.46L107.915 143.96L116.665 136.46C116.112 134.653 115.835 132.57 115.835 130.21C115.835 127.847 116.112 125.763 116.665 123.96L108.125 116.25L112.5 108.96L122.71 112.085C124.237 110.278 126.147 108.785 128.44 107.605C130.73 106.425 133.055 105.557 135.415 105L136.875 93.335H146.25L147.71 105C150.07 105.557 152.362 106.425 154.585 107.605C156.805 108.785 158.748 110.278 160.415 112.085L170.625 108.96L175 116.25L166.25 123.96C166.943 125.763 167.29 127.847 167.29 130.21C167.29 132.57 166.943 134.653 166.25 136.46L175 143.96L170.625 151.46L160.415 148.335C158.748 150.002 156.805 151.46 154.585 152.71C152.362 153.96 150.07 154.862 147.71 155.415L146.25 167.085H136.875ZM141.46 146.04C146.043 146.04 149.827 144.547 152.81 141.56C155.797 138.577 157.29 134.793 157.29 130.21C157.29 125.627 155.797 121.842 152.81 118.855C149.827 115.868 146.043 114.375 141.46 114.375C136.877 114.375 133.092 115.868 130.105 118.855C127.118 121.842 125.625 125.627 125.625 130.21C125.625 134.793 127.118 138.577 130.105 141.56C133.092 144.547 136.877 146.04 141.46 146.04ZM83.335 86.46C88.335 86.46 92.5366 84.7583 95.94 81.355C99.34 77.9517 101.04 73.75 101.04 68.75C101.04 63.75 99.34 59.5483 95.94 56.145C92.5366 52.7417 88.335 51.04 83.335 51.04C78.335 51.04 74.1333 52.7417 70.73 56.145C67.3266 59.5483 65.625 63.75 65.625 68.75C65.625 73.75 67.3266 77.9517 70.73 81.355C74.1333 84.7583 78.335 86.46 83.335 86.46Z" fill="#3233C1"/>
</g>
<defs>
<clipPath id="clip0_2894_4399">
<rect width="200" height="200" fill="white"/>
</clipPath>
</defs>
</svg>
