<svg width="154" height="28" viewBox="0 0 154 28" fill="none" xmlns="http://www.w3.org/2000/svg">
<g clip-path="url(#clip0_377_426)">
<path d="M13.9756 28V13.9756C13.9756 6.25709 20.2327 3.3797e-07 27.9512 0V14.0244C27.9512 21.7429 21.6941 28 13.9756 28Z" fill="#2BB8C8"/>
<path d="M13.9756 28C6.25709 28 3.36798e-07 21.7185 0 14C-3.36799e-07 6.2815 6.25709 3.3797e-07 13.9756 0V28Z" fill="#CAA628"/>
<path d="M56.6014 24.7672C55.3878 24.7672 54.3714 24.549 53.5523 24.1125C52.7331 23.6662 52.1112 23.081 51.6864 22.3569C51.2718 21.6229 51.0645 20.8194 51.0645 19.9465C51.0645 19.1332 51.2111 18.419 51.5044 17.804C51.7977 17.1891 52.2325 16.6683 52.809 16.2418C53.3854 15.8054 54.0933 15.4532 54.9327 15.1854C55.6609 14.9771 56.4851 14.7936 57.4054 14.6349C58.3257 14.4762 59.2915 14.3274 60.3028 14.1885C61.0168 14.0915 61.7259 13.9944 62.43 13.8973C62.6131 13.8721 62.6945 14.1201 62.532 14.2081L62.4335 14.2615C62.3219 14.322 62.1859 14.2396 62.1833 14.1126C62.1604 12.996 61.8876 12.1583 61.3647 11.5997C60.8085 10.9847 59.8477 10.6772 58.4824 10.6772C57.6228 10.6772 56.834 10.8756 56.116 11.2724C55.44 11.6366 54.9567 12.2293 54.6661 13.0507C54.6358 13.1365 54.544 13.1854 54.4569 13.1591L51.8138 12.3615C51.7265 12.3351 51.6766 12.2431 51.7043 12.1562C52.1202 10.8513 52.8727 9.80782 53.9619 9.0257C55.1047 8.21234 56.6216 7.80566 58.5128 7.80566C59.9792 7.80566 61.2534 8.05364 62.3355 8.54959C63.4278 9.03562 64.2267 9.80931 64.7324 10.8706C64.9953 11.3963 65.1571 11.9518 65.2178 12.537C65.2785 13.1223 65.3088 13.7521 65.3088 14.4266V24.1548C65.3088 24.2465 65.2345 24.3208 65.1428 24.3208H62.6684C62.5767 24.3208 62.5024 24.2465 62.5024 24.1548V21.0109C62.5024 20.8684 62.6701 20.7921 62.7776 20.8857L62.9476 21.034C63.0065 21.0853 63.0218 21.1709 62.9831 21.2388C62.3156 22.4102 61.4727 23.2887 60.4545 23.8745C59.4128 24.4696 58.1285 24.7672 56.6014 24.7672ZM57.1627 22.223C58.0627 22.223 58.8364 22.0692 59.4836 21.7617C60.1309 21.4443 60.6517 21.0426 61.0461 20.5566C61.4405 20.0705 61.6984 19.5647 61.8198 19.039C61.9917 18.5628 62.0878 18.0272 62.108 17.4321C62.1321 16.9597 62.1466 16.5624 62.1516 16.24C62.1533 16.125 62.2677 16.0449 62.3759 16.0839L62.5651 16.1521C62.7274 16.2107 62.7038 16.4471 62.5331 16.4724C61.7851 16.5831 61.0922 16.6848 60.4545 16.7774C59.6353 16.8964 58.892 17.0155 58.2246 17.1345C57.5672 17.2436 56.9806 17.3775 56.4649 17.5362C56.03 17.685 55.6406 17.8635 55.2968 18.0718C54.9631 18.2801 54.6951 18.5331 54.4928 18.8307C54.3007 19.1282 54.2046 19.4903 54.2046 19.9168C54.2046 20.3334 54.3108 20.7202 54.5231 21.0773C54.7355 21.4245 55.0591 21.7022 55.494 21.9105C55.9289 22.1188 56.4851 22.223 57.1627 22.223Z" fill="#060632"/>
<path d="M75.5118 24.7672C73.8045 24.7672 72.3544 24.4002 71.1613 23.6662C69.9683 22.9322 69.0529 21.9254 68.4152 20.6458C67.7879 19.3663 67.469 17.9131 67.4587 16.2864C67.469 14.6299 67.7981 13.1669 68.4461 11.8973C69.094 10.6177 70.0197 9.61588 71.223 8.8918C72.4264 8.16771 73.8714 7.80566 75.5581 7.80566C77.3786 7.80566 78.9316 8.2421 80.2172 9.11497C81.4676 9.95718 82.3062 11.0995 82.7331 12.5419C82.759 12.6295 82.7072 12.7204 82.6192 12.7449L79.7187 13.5518C79.6345 13.5752 79.5469 13.5293 79.5154 13.4479C79.1927 12.6153 78.6862 11.9645 77.9956 11.4955C77.2757 10.9897 76.4478 10.7367 75.5118 10.7367C74.4525 10.7367 73.5834 10.9797 72.9046 11.4658C72.2258 11.9419 71.7218 12.5965 71.3927 13.4297C71.0636 14.2629 70.8939 15.2152 70.8836 16.2864C70.8939 17.9429 71.2847 19.282 72.0561 20.3036C72.8378 21.3253 73.9897 21.8361 75.5118 21.8361C76.5506 21.8361 77.3888 21.608 78.0265 21.1517C78.641 20.7096 79.1167 20.0891 79.4537 19.2902C79.4856 19.2146 79.5666 19.1714 79.6467 19.1896L82.5972 19.8607C82.6937 19.8827 82.7498 19.9838 82.7153 20.0766C82.1651 21.559 81.2861 22.7059 80.0783 23.5174C78.8236 24.3506 77.3014 24.7672 75.5118 24.7672Z" fill="#060632"/>
<path d="M101.355 24.7672C101.263 24.7672 101.188 24.6929 101.188 24.6012V22.4157C101.188 22.3681 101.209 22.3228 101.245 22.2912L108.372 15.9976C108.932 15.5046 109.321 15.0386 109.538 14.5995C109.756 14.1605 109.865 13.7368 109.865 13.3286C109.865 12.774 109.744 12.281 109.503 11.8496C109.262 11.4106 108.928 11.0639 108.5 10.8097C108.081 10.5555 107.595 10.4285 107.043 10.4285C106.46 10.4285 105.943 10.5633 105.492 10.8328C105.048 11.0947 104.703 11.4452 104.454 11.8843C104.233 12.2737 104.116 12.6903 104.104 13.1343C104.101 13.2279 104.026 13.3054 103.933 13.3054H101.378C101.286 13.3054 101.212 13.231 101.214 13.1393C101.237 12.0995 101.486 11.1881 101.958 10.4053C102.463 9.58115 103.155 8.94182 104.034 8.48736C104.92 8.03289 105.943 7.80566 107.101 7.80566C108.174 7.80566 109.138 8.04445 109.993 8.52202C110.848 8.99189 111.521 9.64663 112.011 10.4862C112.5 11.3181 112.745 12.2771 112.745 13.3632C112.745 14.1566 112.636 14.8229 112.419 15.3621C112.201 15.9013 111.874 16.3981 111.439 16.8526C111.012 17.307 110.479 17.8116 109.841 18.3662L104.927 22.6784C104.839 22.7552 104.702 22.7204 104.662 22.6113L104.572 22.3681C104.531 22.2596 104.612 22.1444 104.727 22.1444H112.579C112.671 22.1444 112.745 22.2187 112.745 22.3104V24.6012C112.745 24.6929 112.671 24.7672 112.579 24.7672H101.355Z" fill="#060632"/>
<path d="M123.101 24.7682C121.541 24.7682 120.233 24.4019 119.176 23.6693C118.12 22.927 117.32 21.9258 116.776 20.6657C116.233 19.4056 115.961 17.9844 115.961 16.4019C115.961 14.8195 116.228 13.3983 116.761 12.1382C117.305 10.8781 118.1 9.88667 119.146 9.16384C120.203 8.43124 121.501 8.06494 123.041 8.06494C124.571 8.06494 125.889 8.43124 126.996 9.16384C128.113 9.88667 128.974 10.8781 129.578 12.1382C130.181 13.3885 130.483 14.8098 130.483 16.4019C130.483 17.9844 130.181 19.4105 129.578 20.6803C128.984 21.9404 128.133 22.9367 127.026 23.6693C125.929 24.4019 124.621 24.7682 123.101 24.7682ZM115.599 24.3287C115.507 24.3287 115.433 24.2543 115.433 24.1626V4.25277C115.433 4.17848 115.482 4.11324 115.553 4.09301L118.391 3.28958C118.497 3.25958 118.603 3.33919 118.603 3.44934V12.778C118.603 12.8697 118.528 12.9441 118.437 12.9441H118.406C118.315 12.9441 118.24 13.0184 118.24 13.1101V24.1626C118.24 24.2543 118.166 24.3287 118.074 24.3287H115.599ZM122.664 21.999C123.67 21.999 124.5 21.7499 125.154 21.2518C125.819 20.7536 126.312 20.0845 126.634 19.2444C126.966 18.3946 127.132 17.4471 127.132 16.4019C127.132 15.3665 126.966 14.4288 126.634 13.5888C126.312 12.7487 125.814 12.0796 125.139 11.5814C124.465 11.0833 123.605 10.8342 122.558 10.8342C121.572 10.8342 120.756 11.0686 120.112 11.5375C119.478 12.0063 119.005 12.6608 118.693 13.5008C118.391 14.3409 118.24 15.3079 118.24 16.4019C118.24 17.496 118.391 18.463 118.693 19.303C118.995 20.1431 119.473 20.8024 120.127 21.2811C120.782 21.7597 121.627 21.999 122.664 21.999Z" fill="#060632"/>
<path d="M42.2017 24.7681C40.6697 24.7681 39.3847 24.4018 38.3469 23.6692C37.309 22.9269 36.5232 21.9257 35.9895 20.6656C35.4557 19.4055 35.1888 17.9843 35.1888 16.4018C35.1888 14.8194 35.4508 13.3982 35.9746 12.1381C36.5084 10.878 37.2892 9.88657 38.3172 9.16374C39.355 8.43114 40.6301 8.06484 42.1424 8.06484C43.6448 8.06484 44.9396 8.43114 46.0269 9.16374C47.1241 9.88657 47.9692 10.878 48.5622 12.1381C49.1553 13.3884 49.4518 14.8097 49.4518 16.4018C49.4518 17.9843 49.1553 19.4104 48.5622 20.6802C47.979 21.9403 47.1438 22.9366 46.0566 23.6692C44.9792 24.4018 43.6942 24.7681 42.2017 24.7681ZM34.836 24.3286C34.7443 24.3286 34.6699 24.2542 34.6699 24.1625V4.25204C34.6699 4.17805 34.7189 4.113 34.79 4.0925L37.5714 3.29078C37.6776 3.26019 37.7835 3.33985 37.7835 3.45033V12.7779C37.7835 12.8696 37.7091 12.944 37.6174 12.944H37.5937C37.502 12.944 37.4276 13.0183 37.4276 13.11V24.1625C37.4276 24.2542 37.3533 24.3286 37.2616 24.3286H34.836ZM41.7717 21.9989C42.7602 21.9989 43.5756 21.7498 44.2181 21.2517C44.8705 20.7535 45.3548 20.0844 45.6711 19.2443C45.9973 18.3945 46.1603 17.447 46.1603 16.4018C46.1603 15.3664 45.9973 14.4287 45.6711 13.5887C45.3548 12.7486 44.8655 12.0795 44.2033 11.5813C43.541 11.0832 42.6959 10.8341 41.668 10.8341C40.6993 10.8341 39.8987 11.0685 39.2661 11.5374C38.6434 12.0062 38.1788 12.6607 37.8724 13.5007C37.5759 14.3408 37.4276 15.3078 37.4276 16.4018C37.4276 17.4959 37.5759 18.4629 37.8724 19.3029C38.1689 20.143 38.6384 20.8023 39.2809 21.281C39.9234 21.7596 40.7537 21.9989 41.7717 21.9989Z" fill="#060632"/>
<path d="M133.337 24.7686C133.245 24.7686 133.171 24.6943 133.171 24.6026V4.25513C133.171 4.17994 133.221 4.11413 133.294 4.09472L136.322 3.28599C136.427 3.25783 136.53 3.33728 136.53 3.4464V24.6026C136.53 24.6943 136.456 24.7686 136.364 24.7686H133.337Z" fill="#060632"/>
<path d="M146.026 24.7674C144.93 24.7674 144.009 24.5955 143.265 24.2518C142.521 23.908 141.914 23.4592 141.444 22.9054C140.984 22.342 140.632 21.7309 140.387 21.072C140.142 20.4131 139.976 19.7686 139.888 19.1383C139.8 18.5081 139.756 17.9543 139.756 17.4768V9.04885C139.756 8.95715 139.83 8.88281 139.922 8.88281H142.703C142.794 8.88281 142.869 8.95715 142.869 9.04885V16.4885C142.869 17.0901 142.918 17.7108 143.016 18.3505C143.123 18.9808 143.319 19.568 143.603 20.1123C143.897 20.6566 144.303 21.0959 144.822 21.4301C145.351 21.7643 146.036 21.9314 146.878 21.9314C147.426 21.9314 147.945 21.8454 148.434 21.6736C148.924 21.4921 149.35 21.2057 149.712 20.8142C150.084 20.4227 150.373 19.907 150.578 19.2672C150.775 18.6836 150.882 17.9847 150.899 17.1705C150.901 17.0551 151.016 16.9748 151.125 17.0146L152.702 17.5944C152.767 17.6184 152.811 17.6807 152.81 17.7503C152.795 19.1065 152.526 20.3092 152.003 21.3585C151.464 22.4279 150.691 23.2635 149.683 23.865C148.674 24.4666 147.455 24.7674 146.026 24.7674ZM151.435 24.352C151.343 24.352 151.269 24.2777 151.269 24.186V20.0492C151.269 19.9575 151.194 19.8831 151.103 19.8831H151.067C150.976 19.8831 150.901 19.8088 150.901 19.7171V9.04885C150.901 8.95715 150.976 8.88281 151.067 8.88281H153.834C153.926 8.88281 154 8.95715 154 9.04885V24.186C154 24.2777 153.926 24.352 153.834 24.352H151.435Z" fill="#060632"/>
<path d="M85.632 24.7687C85.5402 24.7687 85.4659 24.6943 85.4659 24.6026L85.4806 4.25287C85.4806 4.17876 85.5298 4.11367 85.601 4.09333L88.4129 3.29066C88.519 3.26038 88.6245 3.34002 88.6245 3.45032V15.9679C88.6245 16.119 88.8101 16.1916 88.9126 16.0805L95.7516 8.66831C95.783 8.63424 95.8273 8.61487 95.8736 8.61487H99.589C99.7353 8.61487 99.8101 8.79048 99.7087 8.89598L92.3208 16.58C92.2603 16.643 92.2588 16.742 92.3175 16.8067L99.2874 24.4912C99.3841 24.5979 99.3084 24.7687 99.1644 24.7687H95.4036C95.3553 24.7687 95.3094 24.7477 95.2778 24.7111L91.976 20.8799L88.9163 17.3296C88.8159 17.213 88.6245 17.284 88.6245 17.438V24.6027C88.6245 24.6944 88.5502 24.7687 88.4585 24.7687H85.632Z" fill="#060632"/>
</g>
<defs>
<clipPath id="clip0_377_426">
<rect width="154" height="28" fill="white"/>
</clipPath>
</defs>
</svg>
