<svg width="154" height="28" viewBox="0 0 154 28" fill="none" xmlns="http://www.w3.org/2000/svg">
<path d="M13.9756 28L13.9756 13.9756C13.9756 6.25709 20.2327 1.63336e-06 27.9512 1.29539e-06V1.29539e-06L27.9512 14.0244C27.9512 21.7429 21.6941 28 13.9756 28V28Z" fill="#2BB8C8"/>
<path d="M13.9756 28C6.25709 28 -2.74094e-07 21.7185 -6.10892e-07 14V14C-9.47691e-07 6.2815 6.25709 1.63336e-06 13.9756 1.29539e-06V1.29539e-06L13.9756 28V28Z" fill="#CAA628"/>
<path d="M56.6014 24.7677C55.3878 24.7677 54.3714 24.5495 53.5523 24.113C52.7331 23.6667 52.1112 23.0815 51.6864 22.3574C51.2718 21.6234 51.0645 20.8199 51.0645 19.947C51.0645 19.1337 51.2111 18.4195 51.5044 17.8045C51.7977 17.1896 52.2325 16.6688 52.809 16.2423C53.3854 15.8059 54.0933 15.4537 54.9327 15.1859C55.6609 14.9776 56.4851 14.7941 57.4054 14.6354C58.3257 14.4767 59.2915 14.3279 60.3028 14.189C61.0168 14.092 61.7259 13.9949 62.43 13.8978C62.6131 13.8726 62.6945 14.1206 62.532 14.2086L62.4335 14.262C62.3219 14.3225 62.1859 14.2401 62.1833 14.1131C62.1604 12.9965 61.8876 12.1588 61.3647 11.6002C60.8085 10.9852 59.8477 10.6777 58.4824 10.6777C57.6228 10.6777 56.834 10.8761 56.116 11.2729C55.44 11.6371 54.9567 12.2298 54.6661 13.0512C54.6358 13.137 54.544 13.1859 54.4569 13.1596L51.8138 12.362C51.7265 12.3356 51.6766 12.2436 51.7043 12.1567C52.1202 10.8518 52.8727 9.80831 53.9619 9.02619C55.1047 8.21283 56.6216 7.80615 58.5128 7.80615C59.9792 7.80615 61.2534 8.05413 62.3355 8.55008C63.4278 9.03611 64.2267 9.8098 64.7324 10.8711C64.9953 11.3968 65.1571 11.9523 65.2178 12.5375C65.2785 13.1228 65.3088 13.7526 65.3088 14.4271V24.1553C65.3088 24.247 65.2345 24.3213 65.1428 24.3213H62.6684C62.5767 24.3213 62.5024 24.247 62.5024 24.1553V21.0114C62.5024 20.8689 62.6701 20.7926 62.7776 20.8862L62.9476 21.0345C63.0065 21.0858 63.0218 21.1714 62.9831 21.2393C62.3156 22.4107 61.4727 23.2892 60.4545 23.875C59.4128 24.4701 58.1285 24.7677 56.6014 24.7677ZM57.1627 22.2235C58.0627 22.2235 58.8364 22.0697 59.4836 21.7622C60.1309 21.4448 60.6517 21.0431 61.0461 20.5571C61.4405 20.071 61.6984 19.5652 61.8198 19.0395C61.9917 18.5633 62.0878 18.0277 62.108 17.4326C62.1321 16.9602 62.1466 16.5629 62.1516 16.2405C62.1533 16.1255 62.2677 16.0454 62.3759 16.0844L62.5651 16.1526C62.7274 16.2112 62.7038 16.4476 62.5331 16.4729C61.7851 16.5836 61.0922 16.6853 60.4545 16.7779C59.6353 16.8969 58.892 17.016 58.2246 17.135C57.5672 17.2441 56.9806 17.378 56.4649 17.5367C56.03 17.6855 55.6406 17.864 55.2968 18.0723C54.9631 18.2806 54.6951 18.5336 54.4928 18.8312C54.3007 19.1287 54.2046 19.4908 54.2046 19.9173C54.2046 20.3339 54.3108 20.7207 54.5231 21.0778C54.7355 21.425 55.0591 21.7027 55.494 21.911C55.9289 22.1193 56.4851 22.2235 57.1627 22.2235Z" fill="white"/>
<path d="M75.5118 24.7677C73.8045 24.7677 72.3544 24.4007 71.1613 23.6667C69.9683 22.9327 69.0529 21.9259 68.4152 20.6463C67.7879 19.3668 67.469 17.9136 67.4587 16.2869C67.469 14.6304 67.7981 13.1674 68.4461 11.8978C69.094 10.6182 70.0197 9.61637 71.223 8.89229C72.4264 8.1682 73.8714 7.80615 75.5581 7.80615C77.3786 7.80615 78.9316 8.24259 80.2172 9.11546C81.4676 9.95767 82.3062 11.1 82.7331 12.5424C82.759 12.63 82.7072 12.7209 82.6192 12.7454L79.7187 13.5523C79.6345 13.5757 79.5469 13.5298 79.5154 13.4484C79.1927 12.6158 78.6862 11.965 77.9956 11.496C77.2757 10.9902 76.4478 10.7372 75.5118 10.7372C74.4525 10.7372 73.5834 10.9802 72.9046 11.4663C72.2258 11.9424 71.7218 12.597 71.3927 13.4302C71.0636 14.2634 70.8939 15.2157 70.8836 16.2869C70.8939 17.9434 71.2847 19.2825 72.0561 20.3041C72.8378 21.3258 73.9897 21.8366 75.5118 21.8366C76.5506 21.8366 77.3888 21.6085 78.0265 21.1522C78.641 20.7101 79.1167 20.0896 79.4537 19.2907C79.4856 19.2151 79.5666 19.1719 79.6467 19.1901L82.5972 19.8612C82.6937 19.8832 82.7498 19.9843 82.7153 20.0771C82.1651 21.5595 81.2861 22.7064 80.0783 23.5179C78.8236 24.3511 77.3014 24.7677 75.5118 24.7677Z" fill="white"/>
<path d="M101.355 24.7677C101.263 24.7677 101.188 24.6934 101.188 24.6017V22.4162C101.188 22.3686 101.209 22.3233 101.245 22.2917L108.372 15.9981C108.932 15.5051 109.321 15.0391 109.538 14.6C109.756 14.161 109.865 13.7373 109.865 13.3291C109.865 12.7745 109.744 12.2815 109.503 11.8501C109.262 11.4111 108.928 11.0644 108.5 10.8102C108.081 10.556 107.595 10.429 107.043 10.429C106.46 10.429 105.943 10.5638 105.492 10.8333C105.048 11.0952 104.703 11.4457 104.454 11.8848C104.233 12.2742 104.116 12.6908 104.104 13.1348C104.101 13.2284 104.026 13.3059 103.933 13.3059H101.378C101.286 13.3059 101.212 13.2315 101.214 13.1398C101.237 12.1 101.486 11.1886 101.958 10.4058C102.463 9.58164 103.155 8.94231 104.034 8.48785C104.92 8.03338 105.943 7.80615 107.101 7.80615C108.174 7.80615 109.138 8.04494 109.993 8.52251C110.848 8.99238 111.521 9.64712 112.011 10.4867C112.5 11.3186 112.745 12.2776 112.745 13.3637C112.745 14.1571 112.636 14.8234 112.419 15.3626C112.201 15.9018 111.874 16.3986 111.439 16.8531C111.012 17.3075 110.479 17.8121 109.841 18.3667L104.927 22.6789C104.839 22.7557 104.702 22.7209 104.662 22.6118L104.572 22.3686C104.531 22.2601 104.612 22.1449 104.727 22.1449H112.579C112.671 22.1449 112.745 22.2192 112.745 22.3109V24.6017C112.745 24.6934 112.671 24.7677 112.579 24.7677H101.355Z" fill="white"/>
<path d="M123.101 24.7684C121.541 24.7684 120.233 24.4021 119.176 23.6695C118.12 22.9272 117.32 21.926 116.776 20.6659C116.233 19.4058 115.961 17.9846 115.961 16.4021C115.961 14.8197 116.228 13.3985 116.761 12.1384C117.305 10.8783 118.1 9.88688 119.146 9.16405C120.203 8.43145 121.501 8.06515 123.041 8.06515C124.571 8.06515 125.889 8.43145 126.996 9.16405C128.113 9.88688 128.974 10.8783 129.578 12.1384C130.181 13.3887 130.483 14.81 130.483 16.4021C130.483 17.9846 130.181 19.4107 129.578 20.6805C128.984 21.9406 128.133 22.9369 127.026 23.6695C125.929 24.4021 124.621 24.7684 123.101 24.7684ZM115.599 24.3289C115.507 24.3289 115.433 24.2545 115.433 24.1628V4.25298C115.433 4.17869 115.482 4.11345 115.553 4.09322L118.391 3.28979C118.497 3.25979 118.603 3.3394 118.603 3.44955V12.7782C118.603 12.8699 118.528 12.9443 118.437 12.9443H118.406C118.315 12.9443 118.24 13.0186 118.24 13.1103V24.1628C118.24 24.2545 118.166 24.3289 118.074 24.3289H115.599ZM122.664 21.9992C123.67 21.9992 124.5 21.7501 125.154 21.252C125.819 20.7538 126.312 20.0847 126.634 19.2446C126.966 18.3948 127.132 17.4473 127.132 16.4021C127.132 15.3667 126.966 14.429 126.634 13.589C126.312 12.7489 125.814 12.0798 125.139 11.5816C124.465 11.0835 123.605 10.8344 122.558 10.8344C121.572 10.8344 120.756 11.0688 120.112 11.5377C119.478 12.0065 119.005 12.661 118.693 13.501C118.391 14.3411 118.24 15.3081 118.24 16.4021C118.24 17.4962 118.391 18.4632 118.693 19.3032C118.995 20.1433 119.473 20.8026 120.127 21.2813C120.782 21.7599 121.627 21.9992 122.664 21.9992Z" fill="white"/>
<path d="M42.2017 24.7684C40.6697 24.7684 39.3847 24.4021 38.3469 23.6695C37.309 22.9272 36.5232 21.926 35.9895 20.6659C35.4557 19.4058 35.1888 17.9846 35.1888 16.4021C35.1888 14.8197 35.4508 13.3985 35.9746 12.1384C36.5084 10.8783 37.2892 9.88688 38.3172 9.16405C39.355 8.43145 40.6301 8.06515 42.1424 8.06515C43.6448 8.06515 44.9396 8.43145 46.0269 9.16405C47.1241 9.88688 47.9692 10.8783 48.5622 12.1384C49.1553 13.3887 49.4518 14.81 49.4518 16.4021C49.4518 17.9846 49.1553 19.4107 48.5622 20.6805C47.979 21.9406 47.1438 22.9369 46.0566 23.6695C44.9792 24.4021 43.6942 24.7684 42.2017 24.7684ZM34.836 24.3289C34.7443 24.3289 34.6699 24.2545 34.6699 24.1628V4.25236C34.6699 4.17837 34.7189 4.11331 34.79 4.09281L37.5714 3.29109C37.6776 3.2605 37.7835 3.34016 37.7835 3.45064V12.7782C37.7835 12.8699 37.7091 12.9443 37.6174 12.9443H37.5937C37.502 12.9443 37.4276 13.0186 37.4276 13.1103V24.1628C37.4276 24.2545 37.3533 24.3289 37.2616 24.3289H34.836ZM41.7717 21.9992C42.7602 21.9992 43.5756 21.7501 44.2181 21.252C44.8705 20.7538 45.3548 20.0847 45.6711 19.2446C45.9973 18.3948 46.1603 17.4473 46.1603 16.4021C46.1603 15.3667 45.9973 14.429 45.6711 13.589C45.3548 12.7489 44.8655 12.0798 44.2033 11.5816C43.541 11.0835 42.6959 10.8344 41.668 10.8344C40.6993 10.8344 39.8987 11.0688 39.2661 11.5377C38.6434 12.0065 38.1788 12.661 37.8724 13.501C37.5759 14.3411 37.4276 15.3081 37.4276 16.4021C37.4276 17.4962 37.5759 18.4632 37.8724 19.3032C38.1689 20.1433 38.6384 20.8026 39.2809 21.2813C39.9234 21.7599 40.7537 21.9992 41.7717 21.9992Z" fill="white"/>
<path d="M133.337 24.7684C133.245 24.7684 133.171 24.6941 133.171 24.6024V4.25492C133.171 4.17973 133.221 4.11392 133.294 4.09451L136.322 3.28578C136.427 3.25762 136.53 3.33707 136.53 3.44619V24.6024C136.53 24.6941 136.456 24.7684 136.364 24.7684H133.337Z" fill="white"/>
<path d="M146.026 24.7679C144.93 24.7679 144.009 24.596 143.265 24.2523C142.521 23.9085 141.914 23.4597 141.444 22.9059C140.984 22.3425 140.632 21.7314 140.387 21.0725C140.142 20.4136 139.976 19.7691 139.888 19.1388C139.8 18.5086 139.756 17.9548 139.756 17.4773V9.04934C139.756 8.95764 139.83 8.8833 139.922 8.8833H142.703C142.794 8.8833 142.869 8.95764 142.869 9.04934V16.489C142.869 17.0906 142.918 17.7113 143.016 18.351C143.123 18.9813 143.319 19.5685 143.603 20.1128C143.897 20.6571 144.303 21.0964 144.822 21.4306C145.351 21.7648 146.036 21.9319 146.878 21.9319C147.426 21.9319 147.945 21.8459 148.434 21.6741C148.924 21.4926 149.35 21.2062 149.712 20.8147C150.084 20.4232 150.373 19.9075 150.578 19.2677C150.775 18.6841 150.882 17.9852 150.899 17.171C150.901 17.0556 151.016 16.9753 151.125 17.0151L152.702 17.5949C152.767 17.6189 152.811 17.6812 152.81 17.7508C152.795 19.107 152.526 20.3097 152.003 21.359C151.464 22.4284 150.691 23.264 149.683 23.8655C148.674 24.4671 147.455 24.7679 146.026 24.7679ZM151.435 24.3525C151.343 24.3525 151.269 24.2782 151.269 24.1865V20.0497C151.269 19.958 151.194 19.8836 151.103 19.8836H151.067C150.976 19.8836 150.901 19.8093 150.901 19.7176V9.04934C150.901 8.95764 150.976 8.8833 151.067 8.8833H153.834C153.926 8.8833 154 8.95764 154 9.04934V24.1865C154 24.2782 153.926 24.3525 153.834 24.3525H151.435Z" fill="white"/>
<path d="M85.632 24.7684C85.5402 24.7684 85.4659 24.694 85.4659 24.6023L85.4806 4.2526C85.4806 4.17849 85.5298 4.1134 85.601 4.09306L88.4129 3.29039C88.519 3.26011 88.6245 3.33975 88.6245 3.45005V15.9676C88.6245 16.1187 88.8101 16.1913 88.9126 16.0802L95.7516 8.66804C95.783 8.63397 95.8273 8.6146 95.8736 8.6146H99.589C99.7353 8.6146 99.8101 8.79021 99.7087 8.89571L92.3208 16.5797C92.2603 16.6427 92.2588 16.7417 92.3175 16.8064L99.2874 24.4909C99.3841 24.5976 99.3084 24.7684 99.1644 24.7684H95.4036C95.3553 24.7684 95.3094 24.7474 95.2778 24.7108L91.976 20.8796L88.9163 17.3293C88.8159 17.2127 88.6245 17.2837 88.6245 17.4377V24.6024C88.6245 24.6941 88.5502 24.7684 88.4585 24.7684H85.632Z" fill="white"/>
</svg>
