<svg width="56" height="56" viewBox="0 0 56 56" fill="none" xmlns="http://www.w3.org/2000/svg">
<path fill-rule="evenodd" clip-rule="evenodd" d="M8.09352 25.3588C20.1731 19.9961 28.228 16.4607 32.2583 14.7525C43.7657 9.87547 46.1568 9.02827 47.7153 9.0003C48.0581 8.99415 48.8245 9.08071 49.321 9.49119C49.7402 9.83779 49.8555 10.306 49.9107 10.6346C49.9659 10.9632 50.0346 11.7118 49.98 12.2968C49.3564 18.9731 46.6582 35.1748 45.2854 42.6524C44.7046 45.8165 43.5609 46.8773 42.4536 46.9812C40.0473 47.2068 38.2201 45.3608 35.8895 43.8041C32.2426 41.3681 30.1823 39.8517 26.6423 37.4747C22.5512 34.7276 25.2033 33.2177 27.5348 30.7502C28.1449 30.1045 38.7471 20.2781 38.9523 19.3867C38.978 19.2752 39.0018 18.8596 38.7595 18.6402C38.5172 18.4208 38.1596 18.4958 37.9016 18.5555C37.5358 18.6401 31.7098 22.5639 20.4234 30.327C18.7697 31.4841 17.2719 32.0478 15.9298 32.0183C14.4503 31.9857 11.6044 31.1659 9.4887 30.4651C6.89373 29.6056 4.83131 29.1512 5.0109 27.6915C5.10444 26.9312 6.13198 26.1536 8.09352 25.3588Z" fill="white"/>
</svg>
