<svg width="56" height="56" viewBox="0 0 56 56" fill="none" xmlns="http://www.w3.org/2000/svg">
<path fill-rule="evenodd" clip-rule="evenodd" d="M44.314 11.7083C39.9814 7.39583 34.2047 5 28.107 5C15.4837 5 5.21395 15.2222 5.21395 27.787C5.21395 31.7801 6.28372 35.7199 8.26279 39.1806L5 51L17.1419 47.8056C20.5116 49.6157 24.2558 50.5741 28.107 50.5741C40.7302 50.5741 51 40.3519 51 27.787C51 21.7176 48.6465 15.9676 44.314 11.7083ZM28.107 46.7407C24.6837 46.7407 21.314 45.8356 18.4256 44.0787L17.7302 43.6528L10.5093 45.5162L12.4349 38.5417L11.9535 37.8495C10.0279 34.8148 9.06512 31.3542 9.06512 27.787C9.06512 17.3519 17.6233 8.83333 28.107 8.83333C33.1884 8.83333 37.9488 10.8032 41.586 14.3704C45.1698 17.9375 47.1488 22.7292 47.1488 27.787C47.1488 38.2755 38.5907 46.7407 28.107 46.7407ZM38.5372 32.5787C37.9488 32.3125 35.1674 30.9282 34.6326 30.7153C34.0977 30.5023 33.7233 30.4491 33.3488 30.9815C32.9744 31.5671 31.8512 32.8449 31.5302 33.2176C31.2093 33.5903 30.8884 33.6435 30.3 33.3773C29.7116 33.1111 27.893 32.4722 25.7 30.5556C23.9884 29.0648 22.8651 27.2014 22.4907 26.6157C22.1698 26.0301 22.4372 25.7639 22.7581 25.4444C23.0256 25.1782 23.3465 24.8056 23.614 24.4329C23.8814 24.1134 23.9884 23.8472 24.2023 23.4745C24.4163 23.1019 24.3093 22.7824 24.1488 22.463C23.9884 22.1968 22.8651 19.375 22.3837 18.2569C21.9023 17.1389 21.4209 17.2986 21.1 17.2986C20.7791 17.2986 20.4047 17.2986 19.9767 17.2986C19.6023 17.2986 18.9605 17.4583 18.4256 17.9907C17.8907 18.5764 16.4465 19.9606 16.4465 22.7292C16.4465 25.5509 18.4791 28.2662 18.8 28.6389C19.0674 29.0116 22.8116 34.7616 28.5884 37.2639C29.9791 37.8495 30.9954 38.2222 31.8512 38.4884C33.2419 38.9144 34.4721 38.8611 35.4349 38.7014C36.5581 38.5417 38.8047 37.3171 39.286 35.9861C39.7674 34.6551 39.7674 33.537 39.607 33.2708C39.5 33.0046 39.1256 32.8449 38.5372 32.5787Z" fill="white"/>
</svg>
