<svg width="56" height="56" viewBox="0 0 56 56" fill="none" xmlns="http://www.w3.org/2000/svg">
<path d="M27.9996 9.56305C34.0304 9.56305 34.7196 9.56305 37.1319 9.73536C39.3719 9.90767 40.5781 10.2523 41.2673 10.4246C42.3011 10.7692 42.9904 11.2861 43.8519 12.1477C44.7135 13.0092 45.0581 13.6984 45.575 14.7323C45.9196 15.5938 46.2642 16.6277 46.2642 18.8677C46.4365 21.28 46.4365 21.9692 46.4365 28C46.4365 34.0307 46.4365 34.72 46.2642 37.1323C46.0919 39.3723 45.7473 40.5784 45.575 41.2677C45.2304 42.3015 44.7135 42.9907 43.8519 43.8523C42.9904 44.7138 42.3011 45.0584 41.2673 45.5754C40.4058 45.92 39.3719 46.2646 37.1319 46.2646C34.7196 46.4369 34.0304 46.4369 27.9996 46.4369C21.9688 46.4369 21.2796 46.4369 18.8673 46.2646C16.6273 46.0923 15.4211 45.7477 14.7319 45.5754C13.6981 45.2307 13.0088 44.7138 12.1473 43.8523C11.2858 42.9907 10.9411 42.3015 10.4242 41.2677C10.0796 40.4061 9.73499 39.3723 9.73499 37.1323C9.56269 34.72 9.56269 34.0307 9.56269 28C9.56269 21.9692 9.56269 21.28 9.73499 18.8677C9.9073 16.6277 10.2519 15.4215 10.4242 14.7323C10.7688 13.6984 11.2858 13.0092 12.1473 12.1477C13.0088 11.2861 13.6981 10.9415 14.7319 10.4246C15.5935 10.08 16.6273 9.73536 18.8673 9.73536C21.2796 9.73536 21.9688 9.56305 27.9996 9.56305ZM27.9996 5.59998C21.9688 5.59998 21.1073 5.59998 18.695 5.77228C16.455 5.77228 14.7319 6.28921 13.3535 6.80613C11.8027 7.32305 10.5965 8.18459 9.39038 9.39074C8.18422 10.5969 7.32269 11.8031 6.80576 13.3538C6.28884 14.7323 5.77192 16.4554 5.77192 18.6954C5.59961 21.1077 5.59961 21.9692 5.59961 28C5.59961 34.0307 5.59961 34.8923 5.77192 37.3046C5.94422 39.7169 6.28884 41.2677 6.80576 42.8184C7.32269 44.3692 8.18422 45.5754 9.39038 46.7815C10.5965 47.9877 11.8027 48.8492 13.3535 49.3661C14.7319 49.8831 16.455 50.2277 18.8673 50.4C21.1073 50.4 21.9688 50.4 27.9996 50.4C34.0304 50.4 34.8919 50.4 37.3042 50.2277C39.7165 50.0554 41.2673 49.7107 42.8181 49.1938C44.3688 48.6769 45.575 47.8154 46.7811 46.6092C47.9873 45.4031 48.8488 44.1969 49.3658 42.6461C49.8827 41.2677 50.2273 39.5446 50.3996 37.1323C50.3996 34.8923 50.3996 34.0307 50.3996 28C50.3996 21.9692 50.3996 21.1077 50.2273 18.6954C50.055 16.2831 49.7104 14.7323 49.1935 13.1815C48.6765 11.6307 47.815 10.4246 46.6088 9.21844C45.4027 8.01228 44.1965 7.15074 42.6458 6.63382C41.2673 6.1169 39.5442 5.77228 37.1319 5.59998C34.8919 5.59998 34.0304 5.59998 27.9996 5.59998Z" fill="white"/>
<path d="M27.9998 16.8C21.8147 16.8 16.7998 21.8149 16.7998 28C16.7998 34.1851 21.8147 39.2 27.9998 39.2C34.1849 39.2 39.1998 34.1851 39.1998 28C39.1998 21.8149 34.1849 16.8 27.9998 16.8ZM27.9998 35.188C23.9879 35.188 20.8117 32.0119 20.8117 28C20.8117 23.988 23.9879 20.8119 27.9998 20.8119C32.0117 20.8119 35.1879 23.988 35.1879 28C35.1879 32.0119 32.0117 35.188 27.9998 35.188Z" fill="white"/>
<path d="M41.9994 16.8C41.9994 18.375 40.7744 19.6 39.1994 19.6C37.6244 19.6 36.3994 18.375 36.3994 16.8C36.3994 15.225 37.6244 14 39.1994 14C40.7744 14 41.9994 15.225 41.9994 16.8Z" fill="white"/>
</svg>
