<svg width="36" height="36" viewBox="0 0 36 36" fill="none" xmlns="http://www.w3.org/2000/svg">
<g clip-path="url(#clip0)">
<path d="M35.964 10.5841C35.8797 8.67128 35.5704 7.35623 35.1273 6.21673C34.6701 5.00717 33.9669 3.92426 33.0455 3.02403C32.1453 2.10979 31.0552 1.39938 29.8597 0.949404C28.7136 0.506294 27.4054 0.196968 25.4926 0.112632C23.5655 0.0211528 22.9537 0 18.066 0C13.1783 0 12.5666 0.0211528 10.6466 0.105489C8.73378 0.189826 7.41873 0.499426 6.2795 0.942262C5.06967 1.39938 3.98676 2.10264 3.08653 3.02403C2.17229 3.92426 1.46216 5.01432 1.0119 6.20986C0.568794 7.35623 0.259468 8.66414 0.175132 10.577C0.0836528 12.5041 0.0625 13.1158 0.0625 18.0035C0.0625 22.8912 0.0836528 23.503 0.167989 25.4229C0.252326 27.3358 0.561926 28.6508 1.00504 29.7903C1.46216 30.9999 2.17229 32.0828 3.08653 32.983C3.98676 33.8972 5.07681 34.6076 6.27236 35.0576C7.41873 35.5007 8.72663 35.8101 10.6397 35.8944C12.5594 35.979 13.1715 35.9999 18.0591 35.9999C22.9468 35.9999 23.5586 35.979 25.4786 35.8944C27.3914 35.8101 28.7064 35.5007 29.8456 35.0576C32.265 34.1222 34.1779 32.2094 35.1132 29.7903C35.5561 28.6439 35.8657 27.3358 35.95 25.4229C36.0344 23.503 36.0555 22.8912 36.0555 18.0035C36.0555 13.1158 36.0484 12.5041 35.964 10.5841ZM32.7222 25.2823C32.6447 27.0404 32.3494 27.9898 32.1032 28.6228C31.4983 30.1911 30.2536 31.4358 28.6853 32.0407C28.0523 32.2869 27.0961 32.5822 25.3448 32.6594C23.446 32.744 22.8765 32.7649 18.0732 32.7649C13.2698 32.7649 12.6932 32.744 10.8013 32.6594C9.0431 32.5822 8.0937 32.2869 7.46076 32.0407C6.68031 31.7523 5.9699 31.2952 5.39328 30.6974C4.79551 30.1136 4.33839 29.4104 4.04994 28.6299C3.8038 27.997 3.50848 27.0404 3.43129 25.2894C3.34668 23.3906 3.3258 22.8209 3.3258 18.0175C3.3258 13.2142 3.34668 12.6376 3.43129 10.7459C3.50848 8.98775 3.8038 8.03834 4.04994 7.40541C4.33839 6.62468 4.79551 5.91455 5.40042 5.33765C5.98391 4.73988 6.68717 4.28276 7.4679 3.99458C8.10084 3.74844 9.05739 3.45313 10.8084 3.37566C12.7072 3.29132 13.277 3.27017 18.08 3.27017C22.8905 3.27017 23.46 3.29132 25.3519 3.37566C27.1101 3.45313 28.0595 3.74844 28.6924 3.99458C29.4729 4.28276 30.1833 4.73988 30.7599 5.33765C31.3577 5.92141 31.8148 6.62468 32.1032 7.40541C32.3494 8.03834 32.6447 8.99462 32.7222 10.7459C32.8065 12.6447 32.8276 13.2142 32.8276 18.0175C32.8276 22.8209 32.8065 23.3835 32.7222 25.2823Z" fill="#F4F4F4"/>
<path d="M18.0667 8.75562C12.9612 8.75562 8.81885 12.8977 8.81885 18.0035C8.81885 23.1093 12.9612 27.2514 18.0667 27.2514C23.1725 27.2514 27.3146 23.1093 27.3146 18.0035C27.3146 12.8977 23.1725 8.75562 18.0667 8.75562ZM18.0667 24.0024C14.7545 24.0024 12.0679 21.316 12.0679 18.0035C12.0679 14.691 14.7545 12.0046 18.0667 12.0046C21.3792 12.0046 24.0656 14.691 24.0656 18.0035C24.0656 21.316 21.3792 24.0024 18.0667 24.0024V24.0024Z" fill="#F4F4F4"/>
<path d="M29.8394 8.39004C29.8394 9.58229 28.8727 10.549 27.6802 10.549C26.488 10.549 25.5212 9.58229 25.5212 8.39004C25.5212 7.19752 26.488 6.23108 27.6802 6.23108C28.8727 6.23108 29.8394 7.19752 29.8394 8.39004V8.39004Z" fill="#F4F4F4"/>
</g>
<defs>
<clipPath id="clip0">
<rect width="36" height="36" fill="white"/>
</clipPath>
</defs>
</svg>
