<svg width="56" height="56" viewBox="0 0 56 56" fill="none" xmlns="http://www.w3.org/2000/svg">
<path d="M15.7644 20.4705H6.54102V50.3999H15.7644V20.4705Z" fill="white"/>
<path d="M11.0584 16.7059C14.0701 16.7059 16.5171 14.2588 16.5171 11.247C16.5171 8.23527 14.0701 5.59998 11.0584 5.59998C8.04664 5.59998 5.59961 8.04703 5.59961 11.0588C5.59961 14.0706 8.04664 16.7059 11.0584 16.7059Z" fill="white"/>
<path d="M30.4466 34.7765C30.4466 30.6354 32.3289 28.0001 36.0936 28.0001C39.4818 28.0001 41.1759 30.4471 41.1759 34.7765C41.1759 39.1059 41.1759 50.4001 41.1759 50.4001H50.3993C50.3993 50.4001 50.3993 39.4824 50.3993 31.5765C50.3993 23.6707 45.8817 19.7177 39.4818 19.7177C33.0818 19.7177 30.4466 24.6118 30.4466 24.6118V20.4707H21.5996V50.4001H30.4466C30.4466 50.4001 30.4466 39.2942 30.4466 34.7765Z" fill="white"/>
</svg>
