<svg width="36" height="36" viewBox="0 0 36 36" fill="none" xmlns="http://www.w3.org/2000/svg">
<path d="M18 0C8.05886 0 0 8.05886 0 18C0 27.9411 8.05886 36 18 36C27.9411 36 36 27.9411 36 18C36 8.05886 27.9411 0 18 0ZM25.8338 26.1229C25.605 26.5145 25.1931 26.7329 24.77 26.733C24.559 26.733 24.3454 26.6787 24.1501 26.5646C20.9154 24.6743 17.1786 24.3704 14.6128 24.4485C11.7706 24.5349 9.68632 25.096 9.66562 25.1017C9.01044 25.2807 8.33337 24.8951 8.15365 24.2401C7.97401 23.585 8.35821 22.9084 9.01305 22.728C9.10699 22.7022 11.3499 22.0929 14.4689 21.9901C16.306 21.9295 18.0747 22.0575 19.7249 22.3706C21.8151 22.7671 23.7218 23.4631 25.3922 24.4392C25.9791 24.7822 26.1768 25.5361 25.8338 26.1229ZM28.1222 21.3702C27.8511 21.8341 27.3632 22.0927 26.862 22.0928C26.6122 22.0928 26.359 22.0285 26.1277 21.8934C22.2963 19.6541 17.8699 19.2944 14.8307 19.3868C11.464 19.4892 8.99503 20.1538 8.97054 20.1606C8.19464 20.3723 7.39249 19.9159 7.17959 19.14C6.96679 18.364 7.42195 17.5626 8.19759 17.3489C8.30888 17.3182 10.9656 16.5965 14.6601 16.4747C16.8365 16.403 18.9314 16.5546 20.8861 16.9254C23.3621 17.3952 25.6205 18.2195 27.599 19.3758C28.2944 19.782 28.5286 20.675 28.1222 21.3702ZM29.529 17.0488C29.2225 17.0488 28.912 16.97 28.6282 16.8041C19.5193 11.4807 7.70328 14.6455 7.58501 14.6781C6.63267 14.9405 5.64818 14.3812 5.38587 13.429C5.12348 12.4767 5.68278 11.4922 6.63503 11.2299C6.77149 11.1922 10.0303 10.3071 14.562 10.1577C17.2316 10.0698 19.8011 10.2556 22.1988 10.7105C25.2358 11.2866 28.0062 12.2978 30.433 13.716C31.2857 14.2144 31.573 15.3097 31.0747 16.1624C30.7422 16.7315 30.1437 17.0488 29.529 17.0488Z" fill="#54065B"/>
</svg>
