<svg width="36" height="36" viewBox="0 0 36 36" fill="none" xmlns="http://www.w3.org/2000/svg">
<path d="M33.7726 9.02734C31.718 9.02734 29.8224 8.34672 28.3001 7.19852C26.5543 5.88227 25.2999 3.95148 24.8569 1.72609C24.7473 1.17625 24.6882 0.608828 24.6826 0.0273438H18.8136V16.0642L18.8065 24.8484C18.8065 27.1968 17.2773 29.188 15.1573 29.8884C14.5421 30.0916 13.8776 30.1879 13.1858 30.1499C12.3026 30.1014 11.4751 29.8349 10.7558 29.4046C9.22506 28.4891 8.18725 26.8284 8.15913 24.9285C8.11483 21.9592 10.5153 19.5384 13.4825 19.5384C14.0682 19.5384 14.6307 19.634 15.1573 19.8077V15.4244V13.8487C14.6019 13.7664 14.0365 13.7235 13.4649 13.7235C10.2172 13.7235 7.17967 15.0735 5.00842 17.5056C3.36733 19.3436 2.38295 21.6885 2.23108 24.1473C2.03209 27.3775 3.21405 30.448 5.50624 32.7135C5.84303 33.0461 6.1967 33.3548 6.56655 33.6395C8.53178 35.152 10.9344 35.9718 13.4649 35.9718C14.0365 35.9718 14.6019 35.9296 15.1573 35.8473C17.5212 35.4972 19.7023 34.4151 21.4236 32.7135C23.5386 30.6231 24.7072 27.8479 24.7198 24.8941L24.6896 11.7766C25.6986 12.5549 26.8018 13.199 27.9858 13.6989C29.8273 14.4759 31.7799 14.8696 33.7894 14.8689V10.6073V9.02594C33.7908 9.02734 33.774 9.02734 33.7726 9.02734V9.02734Z" fill="#F4F4F4"/>
</svg>
