<svg width="36" height="36" viewBox="0 0 36 36" fill="none" xmlns="http://www.w3.org/2000/svg">
<path d="M34.162 9.56441C33.7731 8.11854 32.6331 6.97877 31.1874 6.58945C28.5464 5.86682 17.982 5.86682 17.982 5.86682C17.982 5.86682 7.41804 5.86682 4.77699 6.56205C3.35914 6.95097 2.19136 8.11874 1.80244 9.56441C1.10742 12.2052 1.10742 17.682 1.10742 17.682C1.10742 17.682 1.10742 23.1864 1.80244 25.7996C2.19177 27.2453 3.33133 28.385 4.7772 28.7743C7.44585 29.4972 17.9824 29.4972 17.9824 29.4972C17.9824 29.4972 28.5464 29.4972 31.1874 28.8019C32.6333 28.4128 33.7731 27.2731 34.1624 25.8274C34.8572 23.1864 34.8572 17.7098 34.8572 17.7098C34.8572 17.7098 34.885 12.2052 34.162 9.56441V9.56441ZM14.6185 22.7416V12.6224L23.4033 17.682L14.6185 22.7416Z" fill="#F4F4F4"/>
</svg>
