<svg width="40" height="40" viewBox="0 0 40 40" fill="none" xmlns="http://www.w3.org/2000/svg">
<g clip-path="url(#clip0_2024_4092)">
<circle cx="20" cy="20" r="20" fill="#00A89F"/>
<path d="M18.2422 18.402H19.3202C19.6282 18.402 19.9289 18.38 20.2222 18.336C20.5155 18.292 20.7795 18.2113 21.0142 18.094C21.2635 17.962 21.4615 17.786 21.6082 17.566C21.7549 17.3313 21.8282 17.0307 21.8282 16.664C21.8282 16.1947 21.6375 15.806 21.2562 15.498C20.8895 15.19 20.4349 15.036 19.8922 15.036C19.3789 15.036 18.9535 15.1753 18.6162 15.454C18.2789 15.7327 18.0589 16.0773 17.9562 16.488L14.3262 15.74C14.5022 15.0653 14.7662 14.4933 15.1182 14.024C15.4702 13.54 15.8882 13.1513 16.3722 12.858C16.8562 12.5647 17.3915 12.352 17.9782 12.22C18.5795 12.0733 19.2102 12 19.8702 12C20.5595 12 21.2195 12.088 21.8502 12.264C22.4955 12.4253 23.0602 12.6893 23.5442 13.056C24.0282 13.408 24.4095 13.8553 24.6882 14.398C24.9815 14.9407 25.1282 15.586 25.1282 16.334C25.1282 17.1993 24.9009 17.94 24.4462 18.556C23.9915 19.172 23.3315 19.568 22.4662 19.744V19.81C22.9355 19.8687 23.3462 20.008 23.6982 20.228C24.0649 20.448 24.3729 20.7193 24.6222 21.042C24.8715 21.3647 25.0622 21.7313 25.1942 22.142C25.3262 22.5527 25.3922 22.9853 25.3922 23.44C25.3922 24.2173 25.2382 24.8993 24.9302 25.486C24.6369 26.0727 24.2335 26.564 23.7202 26.96C23.2215 27.3413 22.6275 27.6273 21.9382 27.818C21.2635 28.0087 20.5449 28.104 19.7822 28.104C18.3889 28.104 17.1862 27.7813 16.1742 27.136C15.1769 26.4907 14.5169 25.4713 14.1942 24.078L17.6702 23.264C17.7875 23.8213 18.0222 24.2613 18.3742 24.584C18.7409 24.9067 19.2762 25.068 19.9802 25.068C20.6989 25.068 21.2269 24.8847 21.5642 24.518C21.9162 24.1367 22.0922 23.6527 22.0922 23.066C22.0922 22.626 21.9969 22.2887 21.8062 22.054C21.6302 21.8047 21.3955 21.6213 21.1022 21.504C20.8089 21.3867 20.4789 21.3207 20.1122 21.306C19.7455 21.2767 19.3789 21.262 19.0122 21.262H18.2422V18.402Z" fill="white"/>
</g>
<defs>
<clipPath id="clip0_2024_4092">
<rect width="40" height="40" fill="white"/>
</clipPath>
</defs>
</svg>
