<svg width="40" height="40" viewBox="0 0 40 40" fill="none" xmlns="http://www.w3.org/2000/svg">
<g clip-path="url(#clip0_2024_4094)">
<circle cx="20" cy="20" r="20" fill="#F6921E"/>
<path d="M24.8642 14.904H18.6822L18.6162 17.302C18.9535 17.1847 19.4155 17.126 20.0022 17.126C20.7942 17.126 21.5202 17.2433 22.1802 17.478C22.8402 17.7127 23.4049 18.0573 23.8742 18.512C24.3582 18.952 24.7322 19.4947 24.9962 20.14C25.2602 20.7707 25.3922 21.482 25.3922 22.274C25.3922 23.154 25.2382 23.9387 24.9302 24.628C24.6369 25.3173 24.2262 25.904 23.6982 26.388C23.1702 26.8573 22.5395 27.2167 21.8062 27.466C21.0875 27.7153 20.3029 27.84 19.4522 27.84C18.1029 27.84 16.9735 27.51 16.0642 26.85C15.1549 26.19 14.5315 25.1927 14.1942 23.858L17.6482 23.066C17.7362 23.6233 17.9709 24.078 18.3522 24.43C18.7335 24.7673 19.2102 24.936 19.7822 24.936C20.4862 24.936 21.0435 24.716 21.4542 24.276C21.8795 23.836 22.0922 23.2787 22.0922 22.604C22.0922 22.0907 21.9822 21.6727 21.7622 21.35C21.5569 21.0127 21.2782 20.7487 20.9262 20.558C20.5889 20.3527 20.2075 20.2133 19.7822 20.14C19.3569 20.0667 18.9315 20.03 18.5062 20.03C17.9635 20.03 17.4135 20.0813 16.8562 20.184C16.3135 20.2867 15.7855 20.426 15.2722 20.602L15.4482 12H24.8642V14.904Z" fill="white"/>
</g>
<defs>
<clipPath id="clip0_2024_4094">
<rect width="40" height="40" fill="white"/>
</clipPath>
</defs>
</svg>
