<svg width="40" height="40" viewBox="0 0 40 40" fill="none" xmlns="http://www.w3.org/2000/svg">
<g clip-path="url(#clip0_2024_4095)">
<circle cx="20" cy="20" r="20" fill="#FFC10E"/>
<path d="M19.8043 17.566C19.9803 17.522 20.1563 17.4853 20.3323 17.456C20.5083 17.4267 20.6916 17.412 20.8823 17.412C21.6156 17.412 22.2829 17.544 22.8843 17.808C23.4856 18.072 23.9989 18.4313 24.4243 18.886C24.8496 19.3407 25.1796 19.8833 25.4143 20.514C25.6489 21.13 25.7663 21.79 25.7663 22.494C25.7663 23.3007 25.6123 24.034 25.3043 24.694C25.0109 25.3393 24.6003 25.8967 24.0723 26.366C23.5589 26.8353 22.9429 27.202 22.2243 27.466C21.5203 27.7153 20.7649 27.84 19.9583 27.84C19.1369 27.84 18.3743 27.7153 17.6703 27.466C16.9663 27.202 16.3503 26.8353 15.8223 26.366C15.3089 25.8967 14.8983 25.3393 14.5903 24.694C14.2969 24.034 14.1503 23.3007 14.1503 22.494C14.1503 21.9367 14.2016 21.4307 14.3043 20.976C14.4069 20.5067 14.5389 20.0667 14.7003 19.656C14.8763 19.2453 15.0743 18.8567 15.2943 18.49C15.5289 18.1087 15.7709 17.72 16.0203 17.324L19.4303 12H23.4563L19.8043 17.566ZM22.4663 22.362C22.4663 21.658 22.2316 21.0787 21.7623 20.624C21.3076 20.1547 20.7063 19.92 19.9583 19.92C19.2103 19.92 18.6016 20.1547 18.1323 20.624C17.6776 21.0787 17.4503 21.658 17.4503 22.362C17.4503 23.066 17.6776 23.6527 18.1323 24.122C18.6016 24.5767 19.2103 24.804 19.9583 24.804C20.7063 24.804 21.3076 24.5767 21.7623 24.122C22.2316 23.6527 22.4663 23.066 22.4663 22.362Z" fill="white"/>
</g>
<defs>
<clipPath id="clip0_2024_4095">
<rect width="40" height="40" fill="white"/>
</clipPath>
</defs>
</svg>
