<svg width="40" height="40" viewBox="0 0 40 40" fill="none" xmlns="http://www.w3.org/2000/svg">
<g clip-path="url(#clip0_2024_4091)">
<circle cx="20" cy="20" r="20" fill="#0071BB"/>
<path d="M14.5682 24.342L20.6182 18.908C20.9262 18.6293 21.2342 18.314 21.5422 17.962C21.8502 17.61 22.0042 17.1993 22.0042 16.73C22.0042 16.202 21.8136 15.7913 21.4322 15.498C21.0509 15.19 20.6036 15.036 20.0902 15.036C19.4742 15.036 18.9902 15.2267 18.6382 15.608C18.3009 15.9893 18.1102 16.4587 18.0662 17.016L14.7662 16.774C14.8102 15.9673 14.9789 15.2707 15.2722 14.684C15.5656 14.0827 15.9542 13.584 16.4382 13.188C16.9222 12.792 17.4869 12.4987 18.1322 12.308C18.7922 12.1027 19.5036 12 20.2662 12C20.9702 12 21.6302 12.1027 22.2462 12.308C22.8622 12.4987 23.3976 12.792 23.8522 13.188C24.3069 13.5693 24.6589 14.0533 24.9082 14.64C25.1722 15.2267 25.3042 15.9087 25.3042 16.686C25.3042 17.1847 25.2529 17.6393 25.1502 18.05C25.0476 18.446 24.9009 18.8127 24.7102 19.15C24.5342 19.4727 24.3216 19.7733 24.0722 20.052C23.8229 20.3307 23.5516 20.602 23.2582 20.866L18.5282 24.936H25.4362V27.84H14.5682V24.342Z" fill="white"/>
</g>
<defs>
<clipPath id="clip0_2024_4091">
<rect width="40" height="40" fill="white"/>
</clipPath>
</defs>
</svg>
