<svg width="40" height="40" viewBox="0 0 40 40" fill="none" xmlns="http://www.w3.org/2000/svg">
<g clip-path="url(#clip0_2024_4097)">
<circle cx="20" cy="20" r="20" fill="#927E3A"/>
<path d="M14.7882 16.29C14.7882 15.5713 14.9202 14.948 15.1842 14.42C15.4628 13.8773 15.8368 13.43 16.3062 13.078C16.7902 12.7113 17.3475 12.44 17.9782 12.264C18.6088 12.088 19.2835 12 20.0022 12C20.7208 12 21.3955 12.088 22.0262 12.264C22.6568 12.44 23.2068 12.7113 23.6762 13.078C24.1455 13.43 24.5195 13.8773 24.7982 14.42C25.0768 14.948 25.2162 15.5713 25.2162 16.29C25.2162 17.1407 24.9815 17.8667 24.5122 18.468C24.0575 19.0693 23.4122 19.4947 22.5762 19.744V19.788C23.5148 20.0373 24.2335 20.492 24.7322 21.152C25.2308 21.7973 25.4802 22.604 25.4802 23.572C25.4802 24.32 25.3262 24.98 25.0182 25.552C24.7248 26.124 24.3215 26.6007 23.8082 26.982C23.3095 27.3487 22.7302 27.6273 22.0702 27.818C21.4102 28.0087 20.7208 28.104 20.0022 28.104C19.2835 28.104 18.5942 28.0087 17.9342 27.818C17.2742 27.6273 16.6875 27.3487 16.1742 26.982C15.6755 26.6007 15.2722 26.124 14.9642 25.552C14.6708 24.98 14.5242 24.32 14.5242 23.572C14.5242 22.604 14.7735 21.7973 15.2722 21.152C15.7708 20.492 16.4895 20.0373 17.4282 19.788V19.744C16.5922 19.4947 15.9395 19.0693 15.4702 18.468C15.0155 17.8667 14.7882 17.1407 14.7882 16.29ZM18.0882 16.752C18.0882 17.236 18.2642 17.6467 18.6162 17.984C18.9682 18.3213 19.4302 18.49 20.0022 18.49C20.5742 18.49 21.0362 18.3213 21.3882 17.984C21.7402 17.6467 21.9162 17.236 21.9162 16.752C21.9162 16.2827 21.7402 15.8793 21.3882 15.542C21.0362 15.2047 20.5742 15.036 20.0022 15.036C19.4302 15.036 18.9682 15.2047 18.6162 15.542C18.2642 15.8793 18.0882 16.2827 18.0882 16.752ZM17.8242 23.11C17.8242 23.6527 18.0222 24.1147 18.4182 24.496C18.8142 24.8773 19.3422 25.068 20.0022 25.068C20.6622 25.068 21.1902 24.8773 21.5862 24.496C21.9822 24.1147 22.1802 23.6527 22.1802 23.11C22.1802 22.5527 21.9822 22.0833 21.5862 21.702C21.1902 21.3207 20.6622 21.13 20.0022 21.13C19.3422 21.13 18.8142 21.3207 18.4182 21.702C18.0222 22.0833 17.8242 22.5527 17.8242 23.11Z" fill="white"/>
</g>
<defs>
<clipPath id="clip0_2024_4097">
<rect width="40" height="40" fill="white"/>
</clipPath>
</defs>
</svg>
