<svg width="40" height="40" viewBox="0 0 40 40" fill="none" xmlns="http://www.w3.org/2000/svg">
<g clip-path="url(#clip0_2024_4099)">
<circle cx="20" cy="20" r="20" fill="#96268E"/>
<path d="M13.3165 15.96L10.1925 18.71L8.32251 16.554L13.4045 12.264H16.4845V27.84H13.3165V15.96Z" fill="white"/>
<path d="M20.726 20.052C20.726 19.128 20.8067 18.1893 20.968 17.236C21.144 16.2827 21.4447 15.4173 21.87 14.64C22.31 13.8627 22.904 13.232 23.652 12.748C24.4 12.2493 25.3534 12 26.512 12C27.6707 12 28.624 12.2493 29.372 12.748C30.12 13.232 30.7067 13.8627 31.132 14.64C31.572 15.4173 31.8727 16.2827 32.034 17.236C32.21 18.1893 32.298 19.128 32.298 20.052C32.298 20.976 32.21 21.9147 32.034 22.868C31.8727 23.8213 31.572 24.6867 31.132 25.464C30.7067 26.2413 30.12 26.8793 29.372 27.378C28.624 27.862 27.6707 28.104 26.512 28.104C25.3534 28.104 24.4 27.862 23.652 27.378C22.904 26.8793 22.31 26.2413 21.87 25.464C21.4447 24.6867 21.144 23.8213 20.968 22.868C20.8067 21.9147 20.726 20.976 20.726 20.052ZM24.026 20.052C24.026 20.4627 24.0407 20.954 24.07 21.526C24.114 22.098 24.2167 22.648 24.378 23.176C24.5394 23.704 24.7814 24.1513 25.104 24.518C25.4414 24.8847 25.9107 25.068 26.512 25.068C27.0987 25.068 27.5607 24.8847 27.898 24.518C28.2354 24.1513 28.4847 23.704 28.646 23.176C28.8074 22.648 28.9027 22.098 28.932 21.526C28.976 20.954 28.998 20.4627 28.998 20.052C28.998 19.6413 28.976 19.15 28.932 18.578C28.9027 18.006 28.8074 17.456 28.646 16.928C28.4847 16.4 28.2354 15.9527 27.898 15.586C27.5607 15.2193 27.0987 15.036 26.512 15.036C25.9107 15.036 25.4414 15.2193 25.104 15.586C24.7814 15.9527 24.5394 16.4 24.378 16.928C24.2167 17.456 24.114 18.006 24.07 18.578C24.0407 19.15 24.026 19.6413 24.026 20.052Z" fill="white"/>
</g>
<defs>
<clipPath id="clip0_2024_4099">
<rect width="40" height="40" fill="white"/>
</clipPath>
</defs>
</svg>
