<svg width="40" height="40" viewBox="0 0 40 40" fill="none" xmlns="http://www.w3.org/2000/svg">
<g clip-path="url(#clip0_2024_4098)">
<circle cx="20" cy="20" r="20" fill="#D1232A"/>
<path d="M20.2003 22.274C20.0243 22.318 19.8483 22.3547 19.6723 22.384C19.4963 22.4133 19.3129 22.428 19.1223 22.428C18.3889 22.428 17.7216 22.296 17.1203 22.032C16.5189 21.768 16.0056 21.4087 15.5803 20.954C15.1549 20.4993 14.8249 19.964 14.5903 19.348C14.3556 18.7173 14.2383 18.05 14.2383 17.346C14.2383 16.5393 14.3849 15.8133 14.6783 15.168C14.9863 14.508 15.3969 13.9433 15.9103 13.474C16.4383 13.0047 17.0543 12.6453 17.7583 12.396C18.4623 12.132 19.2249 12 20.0463 12C20.8529 12 21.6083 12.132 22.3123 12.396C23.0309 12.6453 23.6469 13.0047 24.1603 13.474C24.6883 13.9433 25.0989 14.508 25.3923 15.168C25.7003 15.8133 25.8543 16.5393 25.8543 17.346C25.8543 17.9033 25.8029 18.4167 25.7003 18.886C25.5976 19.3407 25.4583 19.7733 25.2823 20.184C25.1209 20.5947 24.9229 20.9907 24.6883 21.372C24.4683 21.7387 24.2336 22.12 23.9843 22.516L20.5743 27.84H16.5483L20.2003 22.274ZM17.5383 17.478C17.5383 18.182 17.7656 18.7687 18.2203 19.238C18.6896 19.6927 19.2983 19.92 20.0463 19.92C20.7943 19.92 21.3956 19.6927 21.8503 19.238C22.3196 18.7687 22.5543 18.182 22.5543 17.478C22.5543 16.774 22.3196 16.1947 21.8503 15.74C21.3956 15.2707 20.7943 15.036 20.0463 15.036C19.2983 15.036 18.6896 15.2707 18.2203 15.74C17.7656 16.1947 17.5383 16.774 17.5383 17.478Z" fill="white"/>
</g>
<defs>
<clipPath id="clip0_2024_4098">
<rect width="40" height="40" fill="white"/>
</clipPath>
</defs>
</svg>
