<svg width="40" height="40" viewBox="0 0 40 40" fill="none" xmlns="http://www.w3.org/2000/svg">
<rect width="40" height="40" fill="#00689D"/>
<path d="M12.4013 15.165C12.2326 15.257 11.788 15.4563 11.0673 15.763C10.9446 15.809 10.753 15.8857 10.4923 15.993C10.2316 16.1003 10.017 16.2 9.84829 16.292V13.44C11.6883 12.4893 12.8153 11.7993 13.2293 11.37H16.2423V30H12.4013V15.165ZM24.6297 30.276C22.8817 30.276 21.5861 29.724 20.7427 28.62C19.8994 27.516 19.4777 26.0287 19.4777 24.158V17.419C19.4777 15.395 19.8457 13.8387 20.5817 12.75C21.3331 11.6613 22.6747 11.117 24.6067 11.117C26.3241 11.117 27.5431 11.508 28.2637 12.29C28.9844 13.072 29.3447 14.2757 29.3447 15.901L29.3677 16.223H25.7567C25.7567 15.395 25.6877 14.82 25.5497 14.498C25.4271 14.176 25.1204 14.015 24.6297 14.015C24.2771 14.015 24.0087 14.1223 23.8247 14.337C23.6561 14.5517 23.5411 14.912 23.4797 15.418C23.4184 15.924 23.3877 16.6907 23.3877 17.718V19.374C23.5871 19.052 23.9014 18.799 24.3307 18.615C24.7601 18.431 25.2507 18.339 25.8027 18.339C27.1521 18.339 28.1411 18.8297 28.7697 19.811C29.3984 20.7923 29.7127 22.088 29.7127 23.698C29.7127 25.814 29.3294 27.4393 28.5627 28.574C27.7961 29.7087 26.4851 30.276 24.6297 30.276ZM24.6757 27.447C25.1664 27.447 25.4807 27.2093 25.6187 26.734C25.7721 26.2587 25.8487 25.446 25.8487 24.296C25.8487 23.5447 25.8257 22.9773 25.7797 22.594C25.7337 22.1953 25.6264 21.881 25.4577 21.651C25.2891 21.4057 25.0131 21.283 24.6297 21.283C24.3691 21.283 24.1237 21.3597 23.8937 21.513C23.6637 21.6663 23.4951 21.835 23.3877 22.019V25.055C23.3877 26.6497 23.8171 27.447 24.6757 27.447Z" fill="white"/>
</svg>
