<svg width="40" height="40" viewBox="0 0 40 40" fill="none" xmlns="http://www.w3.org/2000/svg">
<rect width="40" height="40" fill="#DDA63A"/>
<path d="M15.0358 27.286L19.4978 20.432L19.7738 20.018C20.3564 19.144 20.7858 18.4157 21.0618 17.833C21.3378 17.235 21.4758 16.614 21.4758 15.97C21.4758 15.4487 21.3684 15.0577 21.1538 14.797C20.9544 14.521 20.6631 14.383 20.2798 14.383C19.6971 14.383 19.2908 14.613 19.0608 15.073C18.8308 15.5177 18.7158 16.1387 18.7158 16.936V17.856H14.9898V16.867C14.9898 15.119 15.4114 13.7237 16.2548 12.681C17.1134 11.6383 18.4321 11.117 20.2108 11.117C21.8514 11.117 23.1011 11.5463 23.9598 12.405C24.8338 13.2637 25.2708 14.475 25.2708 16.039C25.2708 16.7443 25.1558 17.4113 24.9258 18.04C24.7111 18.6687 24.4504 19.236 24.1438 19.742C23.8371 20.248 23.3618 20.9687 22.7178 21.904L19.3138 26.987H24.7648V30H15.0358V27.286Z" fill="white"/>
</svg>
