<svg width="40" height="40" viewBox="0 0 40 40" fill="none" xmlns="http://www.w3.org/2000/svg">
<rect width="40" height="40" fill="#4C9F38"/>
<path d="M20.0958 30.345C18.2404 30.345 16.9218 29.839 16.1398 28.827C15.3578 27.815 14.9668 26.3737 14.9668 24.503V23.836H18.8078V24.503C18.8078 25.4537 18.8998 26.1283 19.0838 26.527C19.2831 26.9103 19.6434 27.102 20.1648 27.102C20.6554 27.102 20.9851 26.9103 21.1538 26.527C21.3224 26.1437 21.4068 25.5073 21.4068 24.618C21.4068 23.6367 21.2688 22.9237 20.9928 22.479C20.7168 22.019 20.2031 21.7813 19.4518 21.766H18.7388V19.121H19.3598C20.1418 19.121 20.6784 18.914 20.9698 18.5C21.2611 18.0707 21.4068 17.3653 21.4068 16.384C21.4068 15.6327 21.3071 15.073 21.1078 14.705C20.9084 14.337 20.5558 14.153 20.0498 14.153C19.5744 14.153 19.2448 14.3523 19.0608 14.751C18.8921 15.1343 18.8078 15.7017 18.8078 16.453V17.419H14.9668V16.292C14.9668 14.6207 15.4114 13.3403 16.3008 12.451C17.2054 11.5463 18.4551 11.094 20.0498 11.094C21.6751 11.094 22.9401 11.5233 23.8448 12.382C24.7494 13.2407 25.2018 14.4903 25.2018 16.131C25.2018 17.189 24.9871 18.0937 24.5578 18.845C24.1284 19.581 23.5841 20.041 22.9248 20.225C23.6301 20.4857 24.1821 20.9533 24.5808 21.628C24.9948 22.3027 25.2018 23.2687 25.2018 24.526C25.2018 26.3353 24.7954 27.7613 23.9828 28.804C23.1701 29.8313 21.8744 30.345 20.0958 30.345Z" fill="white"/>
</svg>
