<svg width="40" height="40" viewBox="0 0 40 40" fill="none" xmlns="http://www.w3.org/2000/svg">
<rect width="40" height="40" fill="#3F7E44"/>
<path d="M12.682 15.165C12.5134 15.257 12.0687 15.4563 11.348 15.763C11.2254 15.809 11.0337 15.8857 10.773 15.993C10.5124 16.1003 10.2977 16.2 10.129 16.292V13.44C11.969 12.4893 13.096 11.7993 13.51 11.37H16.523V30H12.682V15.165ZM24.5655 30.345C22.7102 30.345 21.3915 29.839 20.6095 28.827C19.8275 27.815 19.4365 26.3737 19.4365 24.503V23.836H23.2775V24.503C23.2775 25.4537 23.3695 26.1283 23.5535 26.527C23.7528 26.9103 24.1132 27.102 24.6345 27.102C25.1252 27.102 25.4548 26.9103 25.6235 26.527C25.7922 26.1437 25.8765 25.5073 25.8765 24.618C25.8765 23.6367 25.7385 22.9237 25.4625 22.479C25.1865 22.019 24.6728 21.7813 23.9215 21.766H23.2085V19.121H23.8295C24.6115 19.121 25.1482 18.914 25.4395 18.5C25.7308 18.0707 25.8765 17.3653 25.8765 16.384C25.8765 15.6327 25.7768 15.073 25.5775 14.705C25.3782 14.337 25.0255 14.153 24.5195 14.153C24.0442 14.153 23.7145 14.3523 23.5305 14.751C23.3618 15.1343 23.2775 15.7017 23.2775 16.453V17.419H19.4365V16.292C19.4365 14.6207 19.8812 13.3403 20.7705 12.451C21.6752 11.5463 22.9248 11.094 24.5195 11.094C26.1448 11.094 27.4098 11.5233 28.3145 12.382C29.2192 13.2407 29.6715 14.4903 29.6715 16.131C29.6715 17.189 29.4568 18.0937 29.0275 18.845C28.5982 19.581 28.0538 20.041 27.3945 20.225C28.0998 20.4857 28.6518 20.9533 29.0505 21.628C29.4645 22.3027 29.6715 23.2687 29.6715 24.526C29.6715 26.3353 29.2652 27.7613 28.4525 28.804C27.6398 29.8313 26.3442 30.345 24.5655 30.345Z" fill="white"/>
</svg>
