<svg width="40" height="40" viewBox="0 0 40 40" fill="none" xmlns="http://www.w3.org/2000/svg">
<rect width="40" height="40" fill="#FD9D24"/>
<path d="M14.1195 15.165C13.9509 15.257 13.5062 15.4563 12.7855 15.763C12.6629 15.809 12.4712 15.8857 12.2105 15.993C11.9499 16.1003 11.7352 16.2 11.5665 16.292V13.44C13.4065 12.4893 14.5335 11.7993 14.9475 11.37H17.9605V30H14.1195V15.165ZM23.059 15.165C22.8903 15.257 22.4457 15.4563 21.725 15.763C21.6023 15.809 21.4107 15.8857 21.15 15.993C20.8893 16.1003 20.6747 16.2 20.506 16.292V13.44C22.346 12.4893 23.473 11.7993 23.887 11.37H26.9V30H23.059V15.165Z" fill="white"/>
</svg>
