<svg width="40" height="40" viewBox="0 0 40 40" fill="none" xmlns="http://www.w3.org/2000/svg">
<rect width="40" height="40" fill="#DD1367"/>
<path d="M12.2665 15.165C12.0979 15.257 11.6532 15.4563 10.9325 15.763C10.8099 15.809 10.6182 15.8857 10.3575 15.993C10.0969 16.1003 9.88219 16.2 9.71352 16.292V13.44C11.5535 12.4893 12.6805 11.7993 13.0945 11.37H16.1075V30H12.2665V15.165ZM24.472 30.345C22.8313 30.345 21.574 29.862 20.7 28.896C19.826 27.93 19.389 26.6343 19.389 25.009V16.568C19.389 14.866 19.8106 13.532 20.654 12.566C21.5126 11.5847 22.7853 11.094 24.472 11.094C26.1586 11.094 27.4236 11.5847 28.267 12.566C29.1103 13.532 29.532 14.866 29.532 16.568V25.009C29.532 26.619 29.0873 27.9147 28.198 28.896C27.324 29.862 26.082 30.345 24.472 30.345ZM24.472 26.918C24.9473 26.918 25.254 26.7187 25.392 26.32C25.5453 25.9213 25.622 25.4537 25.622 24.917V16.66C25.622 16.0467 25.553 15.5407 25.415 15.142C25.2923 14.728 24.978 14.521 24.472 14.521C23.966 14.521 23.644 14.7203 23.506 15.119C23.3833 15.5177 23.322 16.0313 23.322 16.66V24.917C23.322 26.251 23.7053 26.918 24.472 26.918Z" fill="white"/>
</svg>
