<svg width="40" height="40" viewBox="0 0 40 40" fill="none" xmlns="http://www.w3.org/2000/svg">
<rect width="40" height="40" fill="#56C02B"/>
<path d="M12.7382 15.165C12.5695 15.257 12.1249 15.4563 11.4042 15.763C11.2815 15.809 11.0899 15.8857 10.8292 15.993C10.5685 16.1003 10.3539 16.2 10.1852 16.292V13.44C12.0252 12.4893 13.1522 11.7993 13.5662 11.37H16.5792V30H12.7382V15.165ZM24.4837 30.345C23.165 30.345 22.153 30.115 21.4477 29.655C20.7423 29.1797 20.2593 28.528 19.9987 27.7C19.738 26.872 19.6077 25.8217 19.6077 24.549H23.3107C23.3107 25.6377 23.395 26.4043 23.5637 26.849C23.7477 27.2783 24.1003 27.493 24.6217 27.493C25.0357 27.493 25.3347 27.355 25.5187 27.079C25.718 26.7877 25.8407 26.389 25.8867 25.883C25.9327 25.3617 25.9557 24.6027 25.9557 23.606C25.9557 22.5633 25.856 21.7737 25.6567 21.237C25.4573 20.685 25.074 20.409 24.5067 20.409C23.7247 20.409 23.234 20.9763 23.0347 22.111H19.7227L20.0677 11.37H28.7617V14.59H23.1497L22.9427 18.431C23.1113 18.1857 23.464 17.9787 24.0007 17.81C24.5527 17.626 25.1123 17.534 25.6797 17.534C26.937 17.534 27.8953 18.0553 28.5547 19.098C29.2293 20.1407 29.5667 21.6127 29.5667 23.514C29.5667 25.0013 29.4363 26.2357 29.1757 27.217C28.915 28.183 28.4167 28.9497 27.6807 29.517C26.9447 30.069 25.879 30.345 24.4837 30.345Z" fill="white"/>
</svg>
