<svg width="40" height="40" viewBox="0 0 40 40" fill="none" xmlns="http://www.w3.org/2000/svg">
<rect width="40" height="40" fill="#FD6925"/>
<path d="M19.815 30.276C18.0823 30.276 16.8557 29.885 16.135 29.103C15.4297 28.3057 15.077 27.0943 15.077 25.469V25.17H18.665C18.665 25.998 18.734 26.573 18.872 26.895C19.0253 27.217 19.3473 27.378 19.838 27.378C20.1907 27.378 20.4437 27.2707 20.597 27.056C20.7657 26.8413 20.8807 26.481 20.942 25.975C21.0033 25.469 21.034 24.7023 21.034 23.675V22.019C20.8347 22.341 20.5203 22.594 20.091 22.778C19.6617 22.962 19.1787 23.054 18.642 23.054C17.2927 23.054 16.296 22.5327 15.652 21.49C15.0233 20.4473 14.709 19.1057 14.709 17.465C14.709 15.4257 15.1077 13.8617 15.905 12.773C16.7177 11.669 18.021 11.117 19.815 11.117C21.5783 11.117 22.874 11.6383 23.702 12.681C24.53 13.7083 24.944 15.1573 24.944 17.028V23.974C24.944 25.9827 24.5683 27.539 23.817 28.643C23.0657 29.7317 21.7317 30.276 19.815 30.276ZM19.861 20.11C20.321 20.11 20.712 19.8647 21.034 19.374V16.338C21.034 15.602 20.9497 15.0193 20.781 14.59C20.6123 14.1607 20.2903 13.946 19.815 13.946C19.3243 13.946 19.0023 14.1913 18.849 14.682C18.711 15.1573 18.642 15.9623 18.642 17.097C18.642 17.8483 18.665 18.4233 18.711 18.822C18.757 19.2053 18.8643 19.5197 19.033 19.765C19.2017 19.995 19.4777 20.11 19.861 20.11Z" fill="white"/>
</svg>
