<svg width="40" height="40" viewBox="0 0 40 40" fill="none" xmlns="http://www.w3.org/2000/svg">
<rect width="40" height="40" fill="#26BDE2"/>
<path d="M20.16 30.276C18.412 30.276 17.1163 29.724 16.273 28.62C15.4297 27.516 15.008 26.0287 15.008 24.158V17.419C15.008 15.395 15.376 13.8387 16.112 12.75C16.8633 11.6613 18.205 11.117 20.137 11.117C21.8543 11.117 23.0733 11.508 23.794 12.29C24.5147 13.072 24.875 14.2757 24.875 15.901L24.898 16.223H21.287C21.287 15.395 21.218 14.82 21.08 14.498C20.9573 14.176 20.6507 14.015 20.16 14.015C19.8073 14.015 19.539 14.1223 19.355 14.337C19.1863 14.5517 19.0713 14.912 19.01 15.418C18.9487 15.924 18.918 16.6907 18.918 17.718V19.374C19.1173 19.052 19.4317 18.799 19.861 18.615C20.2903 18.431 20.781 18.339 21.333 18.339C22.6823 18.339 23.6713 18.8297 24.3 19.811C24.9287 20.7923 25.243 22.088 25.243 23.698C25.243 25.814 24.8597 27.4393 24.093 28.574C23.3263 29.7087 22.0153 30.276 20.16 30.276ZM20.206 27.447C20.6967 27.447 21.011 27.2093 21.149 26.734C21.3023 26.2587 21.379 25.446 21.379 24.296C21.379 23.5447 21.356 22.9773 21.31 22.594C21.264 22.1953 21.1567 21.881 20.988 21.651C20.8193 21.4057 20.5433 21.283 20.16 21.283C19.8993 21.283 19.654 21.3597 19.424 21.513C19.194 21.6663 19.0253 21.835 18.918 22.019V25.055C18.918 26.6497 19.3473 27.447 20.206 27.447Z" fill="white"/>
</svg>
