<svg width="40" height="40" viewBox="0 0 40 40" fill="none" xmlns="http://www.w3.org/2000/svg">
<rect width="40" height="40" fill="#BF8B2E"/>
<path d="M12.682 15.165C12.5134 15.257 12.0687 15.4563 11.348 15.763C11.2254 15.809 11.0337 15.8857 10.773 15.993C10.5124 16.1003 10.2977 16.2 10.129 16.292V13.44C11.969 12.4893 13.096 11.7993 13.51 11.37H16.523V30H12.682V15.165ZM19.5055 27.286L23.9675 20.432L24.2435 20.018C24.8262 19.144 25.2555 18.4157 25.5315 17.833C25.8075 17.235 25.9455 16.614 25.9455 15.97C25.9455 15.4487 25.8382 15.0577 25.6235 14.797C25.4242 14.521 25.1328 14.383 24.7495 14.383C24.1668 14.383 23.7605 14.613 23.5305 15.073C23.3005 15.5177 23.1855 16.1387 23.1855 16.936V17.856H19.4595V16.867C19.4595 15.119 19.8812 13.7237 20.7245 12.681C21.5832 11.6383 22.9018 11.117 24.6805 11.117C26.3212 11.117 27.5708 11.5463 28.4295 12.405C29.3035 13.2637 29.7405 14.475 29.7405 16.039C29.7405 16.7443 29.6255 17.4113 29.3955 18.04C29.1808 18.6687 28.9202 19.236 28.6135 19.742C28.3068 20.248 27.8315 20.9687 27.1875 21.904L23.7835 26.987H29.2345V30H19.5055V27.286Z" fill="white"/>
</svg>
