<svg width="40" height="40" viewBox="0 0 40 40" fill="none" xmlns="http://www.w3.org/2000/svg">
<rect width="40" height="40" fill="#A21942"/>
<path d="M19.9829 30.299C18.1889 30.299 16.8856 29.793 16.0729 28.781C15.2756 27.7537 14.8769 26.343 14.8769 24.549C14.8769 23.5523 15.0533 22.6707 15.4059 21.904C15.7739 21.122 16.3183 20.5547 17.0389 20.202C16.5023 19.8033 16.0576 19.2513 15.7049 18.546C15.3523 17.8253 15.1759 16.959 15.1759 15.947C15.1759 14.429 15.5899 13.2483 16.4179 12.405C17.2613 11.5463 18.4496 11.117 19.9829 11.117C21.5163 11.117 22.6893 11.5387 23.5019 12.382C24.3299 13.2253 24.7439 14.3907 24.7439 15.878C24.7439 16.936 24.5753 17.833 24.2379 18.569C23.9159 19.2897 23.4789 19.834 22.9269 20.202C23.6476 20.5547 24.1843 21.1373 24.5369 21.95C24.9049 22.7473 25.0889 23.6673 25.0889 24.71C25.0889 26.458 24.6826 27.8303 23.8699 28.827C23.0573 29.8083 21.7616 30.299 19.9829 30.299ZM19.9829 18.822C20.7496 18.822 21.1329 17.8943 21.1329 16.039C21.1329 15.4103 21.0333 14.912 20.8339 14.544C20.6346 14.176 20.3509 13.992 19.9829 13.992C19.5996 13.992 19.3006 14.176 19.0859 14.544C18.8866 14.8967 18.7869 15.3873 18.7869 16.016C18.7869 17.8867 19.1856 18.822 19.9829 18.822ZM19.9829 27.47C20.3969 27.47 20.6959 27.309 20.8799 26.987C21.0793 26.6497 21.1943 26.2893 21.2249 25.906C21.2709 25.5073 21.2939 25.0167 21.2939 24.434C21.2939 23.6367 21.2019 23.008 21.0179 22.548C20.8493 22.088 20.5043 21.858 19.9829 21.858C19.4463 21.858 19.0936 22.1187 18.9249 22.64C18.7563 23.146 18.6719 23.8513 18.6719 24.756C18.6719 25.5227 18.7563 26.1667 18.9249 26.688C19.0936 27.2093 19.4463 27.47 19.9829 27.47Z" fill="white"/>
</svg>
