<svg width="40" height="40" viewBox="0 0 40 40" fill="none" xmlns="http://www.w3.org/2000/svg">
<rect width="40" height="40" fill="#FF3A21"/>
<path d="M20.0139 30.345C18.6953 30.345 17.6833 30.115 16.9779 29.655C16.2726 29.1797 15.7896 28.528 15.5289 27.7C15.2683 26.872 15.1379 25.8217 15.1379 24.549H18.8409C18.8409 25.6377 18.9253 26.4043 19.0939 26.849C19.2779 27.2783 19.6306 27.493 20.1519 27.493C20.5659 27.493 20.8649 27.355 21.0489 27.079C21.2483 26.7877 21.3709 26.389 21.4169 25.883C21.4629 25.3617 21.4859 24.6027 21.4859 23.606C21.4859 22.5633 21.3863 21.7737 21.1869 21.237C20.9876 20.685 20.6043 20.409 20.0369 20.409C19.2549 20.409 18.7643 20.9763 18.5649 22.111H15.2529L15.5979 11.37H24.2919V14.59H18.6799L18.4729 18.431C18.6416 18.1857 18.9943 17.9787 19.5309 17.81C20.0829 17.626 20.6426 17.534 21.2099 17.534C22.4673 17.534 23.4256 18.0553 24.0849 19.098C24.7596 20.1407 25.0969 21.6127 25.0969 23.514C25.0969 25.0013 24.9666 26.2357 24.7059 27.217C24.4453 28.183 23.9469 28.9497 23.2109 29.517C22.4749 30.069 21.4093 30.345 20.0139 30.345Z" fill="white"/>
</svg>
